<svg id="svg" version="1.1" xmlns="http://www.w3.org/2000/svg" xmlns:xlink="http://www.w3.org/1999/xlink" width="400" height="381.51260504201684" viewBox="0, 0, 400,381.51260504201684"><g id="svgg"><path id="path0" d="M0.019 169.561 L 0.037 339.122 4.885 334.122 C 7.551 331.373,10.420 328.617,11.260 327.999 C 14.332 325.739,19.929 322.423,21.866 321.717 C 22.960 321.318,24.320 320.648,24.889 320.228 C 25.458 319.809,26.046 319.466,26.196 319.466 C 26.345 319.466,28.085 318.684,30.061 317.730 C 32.037 316.775,34.540 315.644,35.623 315.217 C 36.707 314.790,37.766 314.306,37.976 314.142 C 38.187 313.978,39.528 313.381,40.956 312.817 C 49.496 309.443,56.357 305.517,58.104 303.004 C 58.887 301.876,60.676 299.885,62.079 298.578 L 64.630 296.202 64.167 291.708 C 63.599 286.202,63.004 283.138,62.405 282.634 C 62.155 282.424,61.826 281.584,61.674 280.769 C 61.228 278.388,60.052 277.099,58.325 277.099 C 57.525 277.099,56.870 276.927,56.870 276.718 C 56.870 276.250,55.468 276.208,55.184 276.667 C 55.071 276.850,53.731 277.122,52.206 277.272 C 50.681 277.422,49.338 277.698,49.223 277.885 C 48.628 278.848,39.029 279.337,35.420 278.588 C 26.445 276.727,22.227 273.860,19.852 268.009 C 19.198 266.396,18.512 264.733,18.328 264.313 C 17.815 263.139,17.173 257.896,17.194 255.042 C 17.211 252.705,17.887 249.631,19.987 242.335 C 20.798 239.519,23.046 234.693,24.179 233.336 C 24.676 232.740,25.388 231.651,25.760 230.916 C 26.491 229.474,30.100 224.178,31.598 222.350 C 32.104 221.732,32.654 220.867,32.821 220.429 C 32.988 219.990,33.778 218.778,34.577 217.736 C 40.700 209.742,42.234 207.658,44.044 204.876 C 45.175 203.139,46.419 201.430,46.809 201.078 C 47.200 200.726,48.206 199.733,49.046 198.873 C 49.885 198.012,51.045 197.099,51.622 196.843 C 52.199 196.588,52.672 196.249,52.672 196.090 C 52.672 195.931,52.897 195.802,53.172 195.802 C 53.446 195.802,54.577 194.986,55.684 193.989 C 58.363 191.575,59.807 185.519,60.482 173.855 C 60.913 166.422,62.186 162.996,65.864 159.377 C 67.029 158.230,67.937 157.069,67.883 156.795 C 67.742 156.088,68.780 154.311,70.614 152.119 C 71.992 150.471,72.163 150.066,71.952 148.941 C 70.782 142.706,70.412 137.326,71.030 135.553 C 71.615 133.875,72.046 134.054,72.353 136.103 C 72.518 137.199,73.086 138.470,73.871 139.499 C 74.816 140.737,75.192 141.696,75.392 143.377 C 75.539 144.606,75.870 146.126,76.129 146.756 C 76.387 147.385,76.914 148.897,77.300 150.115 C 78.157 152.827,78.234 152.878,79.935 151.874 C 82.126 150.581,82.034 147.687,79.625 142.049 C 77.842 137.878,77.431 130.536,78.599 123.726 C 79.943 115.888,80.457 112.168,80.858 107.380 C 81.019 105.456,81.368 103.620,81.633 103.300 C 82.698 102.017,82.378 97.915,81.202 97.780 C 80.231 97.668,80.153 97.761,80.153 99.020 C 80.153 100.127,80.010 100.382,79.389 100.382 C 78.969 100.382,78.626 100.553,78.626 100.763 C 78.626 100.973,78.368 101.145,78.053 101.145 C 77.670 101.145,77.481 101.528,77.481 102.304 C 77.481 102.941,77.241 103.842,76.949 104.307 C 76.656 104.772,76.224 106.300,75.988 107.702 C 75.419 111.089,74.218 113.851,73.781 112.779 C 73.145 111.218,73.599 105.937,74.779 101.155 C 75.425 98.536,75.953 96.045,75.952 95.620 C 75.951 95.195,76.631 92.700,77.463 90.076 C 78.295 87.452,79.684 82.729,80.549 79.580 C 83.725 68.016,88.772 58.059,96.900 47.321 C 101.321 41.481,126.443 15.814,129.580 13.931 C 135.341 10.475,139.182 8.507,142.366 7.382 C 143.731 6.899,145.191 6.339,145.611 6.135 C 146.544 5.684,149.139 4.670,153.435 3.078 C 155.219 2.416,157.195 1.647,157.824 1.367 C 158.454 1.088,159.399 0.678,159.924 0.456 C 160.599 0.170,137.389 0.044,80.439 0.026 L 0.000 0.000 0.019 169.561 M171.756 0.143 C 171.756 0.221,172.006 0.994,172.311 1.860 C 172.859 3.412,172.244 5.715,171.279 5.723 C 171.121 5.724,170.992 6.155,170.992 6.679 C 170.992 7.853,173.502 8.035,175.871 7.034 C 176.652 6.705,178.321 6.375,179.580 6.302 C 180.840 6.230,184.934 5.981,188.679 5.749 C 206.771 4.631,233.451 6.217,242.748 8.964 C 246.584 10.097,249.035 10.675,250.027 10.681 C 250.582 10.684,251.659 11.245,252.510 11.973 C 253.336 12.680,256.415 14.500,259.353 16.017 C 262.291 17.534,266.240 19.931,268.130 21.344 C 270.019 22.757,272.939 24.871,274.618 26.042 C 279.543 29.475,286.111 36.223,290.458 42.315 C 292.977 45.845,297.194 51.614,299.285 54.389 C 300.292 55.725,303.147 59.952,303.887 61.201 C 310.216 71.891,312.975 77.652,314.277 82.899 C 314.861 85.256,314.801 87.405,314.150 87.405 C 313.172 87.405,310.687 83.238,310.687 81.599 C 310.687 80.677,310.538 80.534,309.573 80.534 C 307.662 80.534,307.252 80.874,307.252 82.458 C 307.252 83.916,308.185 84.763,309.140 84.173 C 309.616 83.879,310.830 85.719,310.507 86.243 C 310.371 86.462,309.994 86.641,309.669 86.641 C 309.263 86.641,309.159 86.849,309.337 87.309 C 309.479 87.677,309.867 90.124,310.198 92.748 C 310.529 95.372,310.931 97.605,311.090 97.711 C 311.250 97.816,311.505 98.589,311.656 99.428 C 311.808 100.268,312.085 101.250,312.272 101.612 C 312.597 102.242,313.193 105.866,313.696 110.266 C 314.105 113.848,317.176 114.078,317.176 110.527 C 317.176 109.590,317.347 108.718,317.557 108.588 C 317.767 108.458,317.956 107.289,317.977 105.989 C 317.998 104.689,318.133 103.204,318.277 102.688 L 318.538 101.751 319.391 102.949 C 321.233 105.535,321.874 108.528,321.823 114.292 C 321.783 118.826,321.885 119.843,322.514 121.162 C 322.919 122.013,323.611 124.043,324.051 125.671 C 324.491 127.300,325.113 129.259,325.433 130.025 C 325.753 130.791,326.131 132.120,326.274 132.980 C 326.581 134.820,328.936 136.241,333.015 137.047 C 339.128 138.255,340.563 139.169,342.552 143.119 C 343.289 144.584,343.893 146.111,343.893 146.513 C 343.893 146.915,344.634 148.251,345.539 149.481 C 346.444 150.711,347.860 152.748,348.685 154.008 L 350.185 156.298 350.295 160.878 C 350.438 166.896,350.186 168.566,348.962 169.701 C 347.764 170.811,346.790 179.332,345.784 197.519 C 345.388 204.670,345.112 207.535,344.312 212.786 C 344.088 214.256,343.653 217.384,343.345 219.739 C 342.220 228.345,339.129 239.941,337.082 243.233 C 335.194 246.270,328.379 249.389,321.039 250.577 L 319.367 250.847 319.631 254.717 C 319.776 256.846,320.143 259.790,320.447 261.260 C 320.750 262.729,321.281 265.305,321.628 266.985 C 323.097 274.115,322.480 292.078,320.705 293.854 C 320.149 294.409,320.158 294.583,320.938 298.377 C 321.576 301.479,324.264 304.268,328.626 306.350 C 328.941 306.501,329.800 306.995,330.534 307.449 C 331.269 307.902,333.158 308.964,334.733 309.809 C 336.307 310.653,338.282 311.728,339.122 312.198 C 340.767 313.118,344.119 315.535,346.030 317.179 C 347.228 318.209,354.115 321.756,354.918 321.756 C 355.158 321.756,355.652 321.907,356.017 322.092 C 357.945 323.070,360.250 324.046,360.633 324.046 C 360.873 324.046,361.069 324.218,361.069 324.427 C 361.069 325.324,362.838 324.766,363.489 323.664 C 363.861 323.034,364.456 322.514,364.812 322.507 C 365.167 322.500,365.791 322.243,366.199 321.934 C 368.467 320.219,374.809 321.608,374.809 323.821 C 374.809 324.364,374.954 324.809,375.131 324.809 C 375.916 324.809,377.481 326.618,377.481 327.526 C 377.481 328.187,377.993 328.960,379.072 329.929 C 379.946 330.714,381.592 332.491,382.729 333.878 C 384.515 336.057,385.972 337.215,389.896 339.575 C 393.259 341.597,395.578 343.144,397.615 344.726 L 400.000 346.578 400.000 173.289 L 400.000 0.000 285.878 0.000 C 223.111 0.000,171.756 0.064,171.756 0.143 M141.221 13.428 C 140.697 13.657,139.666 14.095,138.931 14.402 C 134.769 16.142,132.466 17.558,130.261 19.733 C 127.570 22.388,127.139 23.386,129.294 21.974 C 130.081 21.458,131.927 20.654,133.397 20.187 C 134.866 19.721,136.326 19.152,136.641 18.922 C 137.391 18.375,139.382 17.425,141.985 16.371 C 143.139 15.903,144.342 15.312,144.656 15.057 C 144.971 14.803,145.625 14.473,146.109 14.326 C 146.593 14.178,146.923 13.857,146.842 13.613 C 146.648 13.026,142.459 12.888,141.221 13.428 M236.387 21.975 C 236.095 22.735,236.743 23.393,237.619 23.223 C 238.679 23.017,238.665 22.313,237.592 21.824 C 236.783 21.455,236.576 21.481,236.387 21.975 M185.496 22.519 C 186.261 23.014,188.664 23.014,188.359 22.519 C 188.229 22.309,187.403 22.140,186.523 22.143 C 185.350 22.148,185.076 22.248,185.496 22.519 M191.985 22.901 L 191.105 23.664 192.378 23.664 C 193.079 23.664,194.350 23.998,195.204 24.405 C 198.108 25.792,200.789 26.718,201.900 26.718 C 203.061 26.718,203.722 27.258,203.062 27.667 C 201.739 28.484,201.890 29.389,203.349 29.389 C 205.419 29.389,206.503 28.563,205.683 27.611 C 205.350 27.224,204.971 26.608,204.841 26.240 C 204.711 25.873,204.293 25.573,203.914 25.573 C 203.534 25.573,202.884 25.350,202.470 25.077 C 202.056 24.805,200.429 24.196,198.855 23.725 C 197.281 23.253,195.465 22.703,194.820 22.502 C 193.206 22.000,192.989 22.030,191.985 22.901 M159.351 24.325 C 157.923 24.531,154.054 25.844,148.855 27.887 C 147.700 28.341,146.240 28.800,145.611 28.906 C 144.981 29.013,144.208 29.315,143.893 29.578 C 143.578 29.840,142.634 30.345,141.794 30.700 C 140.120 31.406,139.194 31.875,135.526 33.870 C 124.947 39.623,115.510 47.836,108.105 57.731 C 104.951 61.946,100.382 68.724,100.382 69.188 C 100.382 69.369,99.977 70.063,99.483 70.732 C 98.437 72.144,95.869 77.045,94.446 80.344 C 93.902 81.603,93.142 83.321,92.756 84.160 C 91.125 87.711,90.766 89.335,91.400 90.302 C 92.175 91.485,92.148 91.842,91.031 95.266 C 90.475 96.968,90.075 99.086,90.074 100.335 C 90.072 102.424,89.575 106.206,89.110 107.671 C 88.411 109.874,90.779 107.976,97.235 101.159 L 104.090 93.922 104.330 91.522 C 104.501 89.815,104.400 88.636,103.983 87.437 C 103.097 84.894,104.063 79.389,105.396 79.389 C 105.628 79.389,107.697 76.514,110.017 72.965 C 110.383 72.405,110.684 71.648,110.685 71.284 C 110.686 70.919,111.632 69.257,112.786 67.591 C 113.941 65.924,114.885 64.210,114.885 63.781 C 114.885 63.353,115.640 62.153,116.563 61.114 C 117.485 60.076,118.451 58.567,118.709 57.762 C 118.967 56.957,119.481 55.954,119.851 55.534 C 120.221 55.115,120.966 53.825,121.505 52.670 C 122.779 49.940,124.199 48.257,126.235 47.064 C 128.199 45.913,128.762 44.998,128.431 43.491 C 128.218 42.525,128.323 42.317,129.190 41.988 C 132.755 40.633,135.547 38.944,137.786 36.789 C 141.091 33.608,142.179 32.795,143.629 32.417 C 145.920 31.819,148.856 30.651,149.524 30.072 C 149.891 29.753,151.021 29.384,152.035 29.253 C 153.050 29.121,154.338 28.766,154.898 28.464 C 155.458 28.161,156.861 27.483,158.015 26.957 C 160.570 25.792,161.609 24.994,161.275 24.453 C 161.137 24.229,160.905 24.072,160.760 24.103 C 160.615 24.134,159.981 24.234,159.351 24.325 M196.496 28.642 C 196.143 28.848,193.910 29.010,191.534 29.002 C 182.336 28.971,176.247 30.421,181.315 31.435 C 182.571 31.686,182.531 32.443,181.262 32.443 C 180.847 32.443,180.097 32.712,179.595 33.040 C 178.961 33.456,177.988 33.603,176.397 33.525 C 174.649 33.438,173.938 33.567,173.380 34.072 C 172.978 34.435,172.298 34.733,171.868 34.733 C 171.438 34.733,170.885 34.974,170.640 35.270 C 170.395 35.565,169.387 35.888,168.399 35.988 C 167.411 36.087,165.763 36.475,164.736 36.850 C 163.197 37.411,162.660 37.452,161.684 37.084 C 160.663 36.698,160.356 36.742,159.463 37.402 C 158.894 37.823,157.837 38.168,157.114 38.168 C 156.019 38.168,155.670 38.389,155.016 39.498 C 154.332 40.657,154.089 40.799,153.115 40.604 C 152.420 40.465,151.658 40.601,151.095 40.964 C 150.598 41.284,149.547 41.664,148.760 41.808 C 147.364 42.063,146.747 42.748,147.913 42.748 C 148.712 42.748,149.044 43.777,148.469 44.471 C 148.070 44.952,148.176 45.038,149.167 45.038 C 149.810 45.038,150.430 44.887,150.544 44.702 C 151.234 43.586,154.536 44.523,154.574 45.845 C 154.581 46.104,152.251 46.981,149.671 47.690 C 148.588 47.988,147.938 48.405,147.813 48.883 C 147.611 49.656,146.183 49.927,146.183 49.193 C 146.183 48.172,142.000 49.235,140.576 50.618 C 139.828 51.345,139.303 52.026,139.410 52.132 C 139.681 52.404,142.748 50.761,142.748 50.343 C 142.748 49.872,144.554 49.908,144.849 50.384 C 144.980 50.596,144.818 50.872,144.490 50.998 C 143.620 51.331,143.759 52.290,144.677 52.290 C 145.109 52.290,146.182 51.972,147.063 51.583 C 147.944 51.194,148.965 50.770,149.332 50.641 C 149.699 50.511,150.000 50.154,150.000 49.847 C 150.000 49.158,150.869 48.895,152.863 48.980 C 154.837 49.065,154.695 49.640,152.545 50.267 C 151.098 50.689,150.756 50.988,150.236 52.289 C 149.900 53.129,149.365 53.817,149.049 53.817 C 148.294 53.817,148.308 54.435,149.070 54.727 C 149.398 54.853,149.551 55.144,149.409 55.374 C 149.223 55.675,149.034 55.676,148.736 55.377 C 148.226 54.868,146.947 54.828,146.947 55.321 C 146.947 55.519,147.130 55.793,147.354 55.932 C 147.600 56.084,147.218 56.726,146.388 57.556 C 145.632 58.312,145.099 59.151,145.203 59.421 C 145.307 59.691,145.011 60.108,144.547 60.348 C 144.082 60.588,143.052 61.449,142.257 62.262 C 141.462 63.075,140.480 63.740,140.076 63.740 C 139.671 63.740,139.156 64.084,138.931 64.504 C 138.707 64.924,138.365 65.267,138.173 65.267 C 137.354 65.267,129.580 71.269,129.580 71.901 C 129.580 72.136,130.080 72.328,130.692 72.328 C 132.389 72.328,132.256 73.007,130.319 74.232 C 129.288 74.883,128.260 75.938,127.825 76.792 C 127.417 77.591,126.915 78.244,126.710 78.244 C 126.504 78.244,126.336 78.496,126.336 78.804 C 126.336 79.260,126.863 79.336,129.177 79.209 C 132.047 79.052,133.098 78.629,135.016 76.855 C 135.996 75.949,137.405 75.446,137.405 76.002 C 137.405 76.199,137.111 76.472,136.752 76.610 C 135.942 76.921,134.379 78.660,134.363 79.268 C 134.357 79.516,133.836 80.086,133.206 80.534 C 132.576 80.983,132.061 81.528,132.061 81.745 C 132.061 81.963,131.546 82.905,130.916 83.838 C 130.286 84.771,129.771 85.640,129.771 85.769 C 129.771 85.898,128.753 87.007,127.508 88.232 L 125.245 90.461 124.423 89.307 L 123.602 88.154 122.435 89.401 C 121.794 90.087,121.015 91.035,120.705 91.508 C 120.373 92.014,119.755 92.366,119.199 92.366 C 118.613 92.366,118.319 92.547,118.421 92.844 C 118.511 93.106,119.126 93.319,119.788 93.317 C 121.316 93.312,121.408 94.274,119.987 95.392 C 118.816 96.313,117.939 96.417,117.939 95.633 C 117.939 94.798,117.203 94.522,116.923 95.252 C 116.769 95.652,116.915 96.030,117.307 96.249 C 117.993 96.633,118.177 97.710,117.557 97.710 C 117.347 97.710,117.176 97.471,117.176 97.178 C 117.176 96.279,116.088 96.163,115.502 96.999 C 114.569 98.332,112.311 96.806,113.167 95.421 C 113.299 95.207,113.139 94.930,112.810 94.804 C 112.067 94.518,112.026 92.892,112.753 92.481 C 113.618 91.991,114.032 89.119,113.191 89.442 C 112.829 89.581,112.375 89.695,112.183 89.695 C 111.990 89.695,111.832 90.200,111.832 90.817 C 111.832 91.435,111.660 92.046,111.450 92.176 C 111.240 92.305,111.069 92.825,111.069 93.330 C 111.069 93.857,110.744 94.422,110.305 94.656 C 109.885 94.881,109.542 95.412,109.542 95.836 C 109.542 96.264,108.691 97.424,107.634 98.438 C 106.584 99.444,105.725 100.444,105.725 100.660 C 105.725 100.875,105.491 101.246,105.204 101.484 C 104.917 101.722,104.467 102.934,104.203 104.178 C 103.751 106.308,103.773 106.905,104.410 109.733 C 104.649 110.791,104.626 110.823,104.114 110.158 C 103.408 109.240,102.137 110.798,101.702 113.116 C 101.553 113.913,101.214 114.648,100.949 114.750 C 100.684 114.851,100.325 115.482,100.151 116.150 C 99.890 117.151,99.812 116.842,99.710 114.408 C 99.540 110.353,99.036 110.424,93.511 115.279 C 91.937 116.663,89.959 118.326,89.116 118.974 C 87.590 120.147,86.253 122.806,86.258 124.660 C 86.259 125.104,85.830 126.099,85.305 126.872 C 84.182 128.528,84.160 128.918,84.963 132.977 C 86.179 139.126,88.167 139.370,89.487 133.532 C 90.034 131.112,91.612 127.600,92.785 126.191 C 92.981 125.956,93.748 124.948,94.489 123.950 C 96.937 120.657,97.897 122.566,95.976 126.908 C 95.226 128.605,94.883 130.365,94.463 134.684 C 94.164 137.755,93.820 141.040,93.699 141.985 C 93.443 143.981,93.916 145.048,94.751 144.355 C 95.157 144.018,95.393 144.019,95.734 144.360 C 96.700 145.326,97.112 144.091,96.596 141.784 C 96.220 140.105,96.216 139.240,96.576 137.739 C 97.004 135.956,96.978 135.769,96.180 134.921 C 95.120 133.792,95.340 132.636,96.943 130.920 C 97.656 130.156,98.092 129.284,98.092 128.617 C 98.092 126.355,98.825 125.701,99.557 127.308 C 100.284 128.904,100.127 131.206,99.272 131.477 C 98.415 131.749,97.957 132.696,98.516 133.041 C 98.731 133.174,99.003 132.915,99.120 132.466 C 99.878 129.566,100.642 133.304,100.021 136.872 C 99.311 140.950,102.598 146.079,103.770 142.720 C 103.994 142.074,104.655 141.057,105.238 140.459 C 106.743 138.915,108.397 136.786,108.397 136.394 C 108.397 136.211,108.841 135.582,109.383 134.997 C 110.226 134.088,110.296 133.845,109.860 133.321 C 109.217 132.545,109.405 131.329,110.321 130.339 C 110.712 129.916,111.377 128.789,111.800 127.834 C 112.867 125.420,114.487 124.152,115.840 124.671 C 116.719 125.009,116.526 126.050,115.278 127.699 C 114.077 129.286,113.869 130.129,114.520 130.779 C 115.468 131.728,115.723 140.277,114.873 142.640 C 114.436 143.854,113.914 145.620,113.713 146.565 C 113.511 147.510,112.933 149.656,112.428 151.336 C 111.248 155.257,110.870 158.912,111.429 160.990 C 111.739 162.141,111.748 163.018,111.459 164.091 C 111.160 165.200,111.177 165.851,111.524 166.613 C 111.951 167.550,111.901 167.707,110.958 168.394 C 110.043 169.061,109.924 169.398,109.924 171.321 C 109.924 172.771,109.702 173.808,109.259 174.438 C 107.776 176.543,107.944 195.220,109.545 206.266 C 110.186 210.687,110.275 212.169,109.942 212.898 C 109.420 214.043,109.770 220.503,110.535 223.855 C 110.822 225.115,111.060 227.105,111.063 228.279 C 111.066 229.453,111.324 231.256,111.637 232.287 C 111.950 233.317,112.207 234.644,112.210 235.235 C 112.212 235.826,112.407 236.671,112.643 237.112 C 112.880 237.554,113.547 239.647,114.126 241.763 C 115.348 246.226,116.385 249.090,118.180 252.966 C 118.887 254.493,119.466 255.881,119.466 256.050 C 119.466 256.390,122.140 261.104,123.770 263.637 C 124.342 264.525,124.809 265.384,124.809 265.546 C 124.809 265.708,125.748 267.276,126.896 269.030 C 129.522 273.045,129.679 273.528,128.662 274.476 C 127.274 275.769,128.446 277.367,130.460 276.925 C 131.762 276.639,133.385 278.000,134.843 280.601 C 137.219 284.838,137.405 285.318,137.405 287.220 C 137.405 289.191,137.064 289.888,134.170 293.833 C 132.677 295.870,131.642 299.148,131.260 303.053 C 131.065 305.048,130.658 308.826,130.355 311.450 C 129.831 315.989,129.456 322.761,129.191 332.443 C 128.829 345.706,131.887 363.593,137.024 378.244 C 137.502 379.609,137.950 380.940,138.019 381.202 C 138.118 381.582,151.018 381.679,200.907 381.679 L 263.670 381.679 266.141 376.622 C 269.049 370.670,270.965 365.934,272.280 361.450 C 272.804 359.666,273.507 357.347,273.843 356.298 C 275.511 351.091,277.633 337.413,278.223 328.053 C 278.422 324.905,278.771 320.782,278.999 318.893 C 280.828 303.716,281.382 283.842,280.084 279.962 C 279.637 278.624,281.128 275.145,284.248 270.244 C 284.711 269.518,285.202 268.402,285.340 267.764 C 285.477 267.125,286.016 265.757,286.537 264.724 C 287.058 263.691,287.880 261.524,288.363 259.910 C 288.846 258.295,289.410 256.650,289.617 256.254 C 291.038 253.525,292.366 249.493,292.366 247.904 C 292.366 247.356,292.607 245.756,292.901 244.350 C 293.195 242.944,293.723 240.076,294.074 237.977 C 294.426 235.878,294.958 232.910,295.257 231.382 C 295.557 229.854,295.802 227.173,295.802 225.423 C 295.802 223.673,295.983 221.316,296.206 220.186 C 296.564 218.364,297.123 204.551,297.023 200.000 C 297.003 199.055,297.341 196.479,297.776 194.275 C 298.623 189.975,298.608 183.096,297.745 180.725 C 297.516 180.095,297.161 178.120,296.955 176.336 C 296.750 174.552,296.390 172.112,296.157 170.915 C 295.869 169.440,295.851 168.181,296.101 167.008 C 296.441 165.415,296.393 165.200,295.504 164.311 C 294.439 163.246,294.377 162.103,294.893 153.053 C 295.141 148.718,294.232 141.554,293.296 140.458 C 292.498 139.524,291.516 136.587,291.319 134.546 C 291.190 133.212,290.873 132.398,290.260 131.830 C 289.114 130.768,288.592 126.611,289.326 124.389 C 289.683 123.305,289.707 122.660,289.414 122.016 C 289.192 121.529,289.094 120.694,289.196 120.160 C 289.302 119.605,289.040 118.483,288.584 117.538 C 287.775 115.864,287.637 114.326,288.140 112.595 C 288.306 112.022,288.190 111.015,287.848 110.072 C 287.342 108.676,287.344 108.307,287.865 106.724 C 288.368 105.197,288.374 104.901,287.910 104.642 C 287.613 104.476,287.114 103.242,286.801 101.902 C 286.488 100.561,285.809 98.909,285.292 98.231 C 284.734 97.499,284.349 96.482,284.346 95.732 C 284.333 92.517,282.672 91.371,282.210 94.257 C 281.811 96.756,279.449 97.963,279.351 95.718 C 279.310 94.776,279.262 94.855,278.459 97.188 C 278.261 97.764,277.956 97.945,277.423 97.805 C 276.009 97.436,275.511 96.037,275.324 91.902 C 275.176 88.664,274.921 87.376,273.865 84.542 C 273.160 82.653,272.439 80.420,272.261 79.580 C 271.949 78.108,271.888 78.057,270.544 78.161 C 269.269 78.260,269.128 78.170,268.896 77.114 C 268.757 76.479,268.355 75.776,268.005 75.553 C 267.541 75.258,267.497 75.092,267.844 74.946 C 268.121 74.829,268.321 74.052,268.321 73.085 C 268.321 69.523,266.674 67.922,264.593 69.460 C 262.784 70.797,262.044 70.403,261.907 68.029 C 261.822 66.550,261.552 65.768,260.875 65.037 C 260.371 64.493,259.778 63.507,259.558 62.845 C 259.178 61.704,257.132 59.924,256.200 59.924 C 255.963 59.924,255.506 59.549,255.185 59.091 C 254.649 58.325,254.548 58.307,253.923 58.862 C 253.550 59.194,252.593 59.735,251.798 60.063 C 249.585 60.977,245.321 64.582,244.867 65.923 C 244.631 66.620,242.932 68.702,242.600 68.702 C 242.498 68.702,242.361 68.157,242.295 67.491 C 242.133 65.852,241.420 65.724,240.980 67.256 C 240.275 69.714,237.786 67.887,237.786 64.911 C 237.786 63.578,237.208 62.251,236.351 61.619 C 235.680 61.125,237.222 59.090,238.940 58.202 C 239.972 57.668,241.985 53.469,241.985 51.849 C 241.985 50.773,240.266 50.000,237.871 50.000 C 235.896 50.000,235.514 49.870,234.558 48.871 C 233.711 47.988,233.328 47.822,232.792 48.109 C 232.338 48.352,232.023 48.338,231.856 48.069 C 231.718 47.845,230.806 47.706,229.829 47.760 C 225.299 48.008,224.465 47.817,223.589 46.332 C 222.824 45.035,222.686 44.966,221.237 45.161 C 220.391 45.274,219.370 45.191,218.969 44.976 C 218.462 44.705,218.111 44.713,217.822 45.003 C 217.192 45.632,216.697 45.514,215.566 44.466 C 214.311 43.302,214.272 43.299,213.966 44.370 C 213.736 45.176,213.686 45.149,213.153 43.934 C 212.603 42.676,212.564 42.658,211.835 43.318 C 210.909 44.156,209.764 43.045,209.358 40.915 C 209.226 40.222,208.870 39.559,208.567 39.443 C 208.244 39.319,208.015 38.722,208.015 38.003 C 208.015 36.745,207.139 35.644,205.443 34.770 C 204.974 34.527,204.481 33.897,204.348 33.368 C 204.084 32.318,197.558 32.003,194.941 32.915 C 194.343 33.124,193.749 33.190,193.622 33.062 C 193.161 32.601,194.735 31.368,196.113 31.110 C 197.258 30.895,198.540 30.354,199.972 29.481 C 201.000 28.854,197.556 28.023,196.496 28.642 M210.115 28.626 C 211.157 29.074,211.450 29.074,211.450 28.626 C 211.450 28.416,210.978 28.256,210.401 28.271 C 209.471 28.295,209.438 28.335,210.115 28.626 M253.880 29.343 C 254.069 29.839,258.104 33.206,258.510 33.206 C 258.702 33.206,259.197 33.635,259.610 34.160 C 260.023 34.685,260.574 35.115,260.835 35.115 C 261.096 35.115,262.546 36.227,264.056 37.588 C 265.566 38.948,267.358 40.343,268.038 40.689 C 268.718 41.034,270.750 42.835,272.553 44.690 C 274.357 46.546,276.291 48.239,276.852 48.452 C 277.413 48.665,278.056 49.315,278.281 49.897 C 278.706 50.995,279.009 51.605,281.158 55.684 C 281.865 57.026,282.443 58.454,282.443 58.859 C 282.443 59.390,282.631 59.534,283.124 59.377 C 283.605 59.225,284.005 59.499,284.484 60.310 C 285.526 62.074,289.323 66.031,289.974 66.031 C 291.989 66.031,285.560 56.013,279.132 49.134 C 277.804 47.713,276.718 46.415,276.718 46.249 C 276.718 46.083,274.871 44.294,272.615 42.273 C 270.358 40.252,267.653 37.807,266.603 36.840 C 264.332 34.748,261.012 32.443,260.266 32.441 C 259.519 32.439,257.622 31.228,256.489 30.030 C 255.611 29.102,253.586 28.569,253.880 29.343 M215.432 30.195 C 215.158 30.638,215.889 31.282,216.676 31.292 C 217.496 31.302,217.595 30.581,216.830 30.172 C 215.890 29.669,215.755 29.671,215.432 30.195 M187.023 30.534 C 187.023 30.744,186.679 30.916,186.260 30.916 C 185.840 30.916,185.496 30.744,185.496 30.534 C 185.496 30.324,185.840 30.153,186.260 30.153 C 186.679 30.153,187.023 30.324,187.023 30.534 M169.752 30.808 C 169.150 30.899,168.702 31.208,168.702 31.533 C 168.702 32.323,172.340 32.022,173.200 31.162 C 173.862 30.500,172.624 30.373,169.752 30.808 M218.702 32.949 C 218.702 33.227,219.114 33.841,219.616 34.313 C 220.851 35.473,221.346 34.640,220.163 33.392 C 219.166 32.341,218.702 32.200,218.702 32.949 M184.351 33.409 C 184.351 34.143,183.584 34.448,182.189 34.269 L 181.107 34.130 182.443 33.508 C 184.156 32.711,184.351 32.701,184.351 33.409 M202.290 36.009 C 203.025 36.348,203.884 36.775,204.198 36.958 C 204.513 37.140,205.286 37.562,205.916 37.896 C 206.918 38.426,207.067 38.719,207.108 40.243 C 207.169 42.519,206.276 42.583,204.108 40.458 C 202.202 38.589,201.393 38.435,201.955 40.046 C 202.169 40.659,202.589 41.254,202.889 41.370 C 203.403 41.567,203.685 42.748,203.219 42.748 C 203.099 42.748,202.077 42.018,200.946 41.126 C 199.814 40.234,198.495 39.218,198.013 38.868 C 197.242 38.308,197.196 38.135,197.633 37.413 C 197.905 36.962,198.014 36.236,197.876 35.800 C 197.569 34.832,199.990 34.948,202.290 36.009 M210.975 38.359 C 211.076 38.884,211.328 39.313,211.536 39.313 C 211.744 39.313,211.809 39.041,211.682 38.709 C 211.555 38.377,211.450 37.948,211.450 37.755 C 211.450 37.562,211.302 37.405,211.122 37.405 C 210.941 37.405,210.875 37.834,210.975 38.359 M165.400 39.533 C 167.135 39.841,166.580 40.443,164.554 40.452 C 163.765 40.456,162.417 40.975,161.069 41.794 C 158.352 43.444,154.198 43.790,154.198 42.366 C 154.198 41.722,154.453 41.603,155.831 41.603 C 156.729 41.603,157.811 41.360,158.236 41.062 C 158.661 40.765,159.638 40.403,160.407 40.259 C 161.176 40.115,162.007 39.753,162.254 39.455 C 162.501 39.158,162.980 38.995,163.317 39.093 C 163.655 39.192,164.592 39.390,165.400 39.533 M186.935 43.678 C 187.043 43.786,186.932 44.115,186.689 44.408 C 186.446 44.701,186.354 45.221,186.485 45.562 C 186.616 45.904,186.547 46.183,186.332 46.183 C 186.117 46.183,185.884 46.036,185.814 45.856 C 185.744 45.676,184.529 45.704,183.114 45.918 C 180.325 46.341,178.626 45.939,178.626 44.856 C 178.626 44.536,178.675 44.275,178.736 44.275 C 178.797 44.275,179.746 43.958,180.847 43.570 C 182.716 42.912,186.231 42.974,186.935 43.678 M177.863 46.962 C 177.863 47.155,177.446 47.418,176.936 47.546 C 176.426 47.674,175.923 48.003,175.818 48.277 C 175.474 49.175,172.013 50.060,169.929 49.784 C 168.830 49.638,167.730 49.697,167.324 49.924 C 166.852 50.189,166.389 50.192,165.906 49.933 C 164.952 49.423,166.564 48.487,169.084 48.088 C 170.029 47.938,171.574 47.629,172.519 47.400 C 177.242 46.257,177.863 46.206,177.863 46.962 M133.969 51.322 C 133.969 51.630,133.647 52.054,133.254 52.265 C 131.875 53.002,131.923 54.322,133.318 54.042 C 134.790 53.748,136.382 51.948,135.797 51.240 C 135.253 50.582,133.969 50.640,133.969 51.322 M155.344 51.527 C 155.344 51.737,155.086 51.908,154.771 51.908 C 154.456 51.908,154.198 51.737,154.198 51.527 C 154.198 51.317,154.456 51.145,154.771 51.145 C 155.086 51.145,155.344 51.317,155.344 51.527 M168.690 52.808 C 168.672 53.487,167.128 54.438,165.574 54.727 C 164.296 54.964,161.069 57.861,161.069 58.771 C 161.069 59.256,159.290 59.858,158.784 59.545 C 158.503 59.372,158.379 58.890,158.497 58.436 C 158.740 57.508,158.721 57.500,157.556 58.041 C 156.028 58.752,155.174 60.200,156.108 60.497 C 157.139 60.824,157.073 61.117,155.673 62.429 L 154.476 63.550 154.693 62.131 C 154.923 60.627,154.013 60.667,152.807 62.214 C 151.556 63.819,150.045 65.174,148.760 65.842 C 147.972 66.251,147.328 66.719,147.328 66.881 C 147.328 67.043,147.071 67.176,146.756 67.176 C 145.644 67.176,146.135 65.679,147.424 65.139 C 149.936 64.086,152.508 61.069,150.893 61.069 C 149.723 61.069,147.328 62.903,147.328 63.799 C 147.328 63.977,146.899 64.122,146.374 64.122 C 144.700 64.122,146.636 61.353,148.666 60.843 C 149.159 60.719,149.656 60.376,149.770 60.080 C 149.883 59.784,150.454 59.537,151.038 59.530 C 151.730 59.522,152.555 59.059,153.410 58.200 C 154.132 57.476,155.292 56.694,155.990 56.464 C 156.687 56.234,157.436 55.713,157.653 55.307 C 158.931 52.919,168.748 50.696,168.690 52.808 M135.122 60.731 C 133.060 61.554,132.176 62.977,133.727 62.977 C 134.793 62.977,136.641 61.628,136.641 60.850 C 136.641 60.225,136.433 60.208,135.122 60.731 M154.198 64.313 C 154.198 64.628,153.946 64.885,153.638 64.885 C 153.296 64.885,153.163 64.662,153.297 64.313 C 153.418 63.998,153.670 63.740,153.858 63.740 C 154.045 63.740,154.198 63.998,154.198 64.313 M143.511 66.633 C 143.511 66.819,141.707 68.561,139.761 70.254 C 139.478 70.500,138.763 70.596,138.139 70.471 C 137.077 70.259,136.525 70.763,137.473 71.079 C 138.100 71.288,137.562 72.519,136.844 72.519 C 136.523 72.519,136.260 72.261,136.260 71.947 C 136.260 71.632,135.926 71.374,135.519 71.374 C 134.276 71.374,134.224 70.615,135.437 70.192 C 136.066 69.973,136.678 69.537,136.799 69.224 C 136.919 68.910,137.319 68.700,137.688 68.757 C 138.057 68.814,139.046 68.422,139.885 67.887 C 141.956 66.567,143.511 66.029,143.511 66.633 M135.878 72.538 C 135.878 74.106,132.923 77.641,131.930 77.260 C 130.909 76.868,131.184 76.130,133.111 74.096 C 134.847 72.262,135.878 71.682,135.878 72.538 M296.947 100.456 C 296.947 100.951,297.196 101.714,297.502 102.150 C 298.267 103.242,299.224 106.090,299.231 107.294 C 299.234 107.841,299.752 109.255,300.382 110.435 C 301.727 112.956,301.799 113.758,300.763 114.695 C 300.024 115.363,300.000 115.361,300.000 114.632 C 300.000 114.217,298.970 112.774,297.712 111.424 C 296.453 110.074,295.422 108.841,295.422 108.683 C 295.419 108.286,294.366 108.323,294.115 108.729 C 294.002 108.911,294.336 109.555,294.858 110.160 C 295.379 110.765,295.910 111.585,296.038 111.983 C 296.165 112.380,296.776 113.200,297.394 113.805 C 298.012 114.409,298.486 115.200,298.446 115.563 C 298.220 117.629,299.945 120.390,300.522 118.886 C 300.999 117.643,301.763 118.472,302.643 121.189 C 303.280 123.153,303.759 124.046,304.174 124.046 C 304.898 124.046,304.987 115.691,304.288 113.359 C 302.970 108.964,302.560 107.940,301.708 106.929 C 301.189 106.311,300.763 105.431,300.763 104.973 C 300.763 104.515,300.291 103.667,299.714 103.089 C 299.136 102.512,298.492 101.551,298.282 100.955 C 297.793 99.565,296.947 99.249,296.947 100.456 M121.374 100.864 C 121.374 101.729,117.825 106.489,117.181 106.489 C 116.316 106.489,116.477 105.636,117.538 104.599 C 118.178 103.973,118.702 103.164,118.702 102.801 C 118.702 102.130,120.498 100.000,121.064 100.000 C 121.234 100.000,121.374 100.389,121.374 100.864 M116.794 101.875 C 116.794 102.067,116.193 103.136,115.458 104.252 C 114.723 105.368,114.122 106.423,114.122 106.598 C 114.122 106.772,113.950 106.809,113.740 106.679 C 112.890 106.154,113.378 104.402,114.772 102.974 C 116.172 101.540,116.794 101.202,116.794 101.875 M292.975 101.808 C 292.652 102.132,293.904 103.435,294.538 103.435 C 294.936 103.435,294.971 103.259,294.681 102.717 C 294.262 101.934,293.340 101.443,292.975 101.808 M106.913 106.217 C 106.601 106.528,106.489 106.486,106.489 106.056 C 106.489 105.297,107.002 104.784,107.191 105.353 C 107.272 105.594,107.147 105.983,106.913 106.217 M117.047 107.849 C 117.188 108.215,116.954 108.671,116.441 109.031 C 115.359 109.788,115.515 111.213,116.698 111.382 C 118.040 111.572,117.941 113.740,116.591 113.740 C 115.954 113.740,115.496 114.034,115.248 114.599 C 114.945 115.291,114.914 115.179,115.087 114.024 C 115.279 112.746,115.197 112.550,114.331 112.221 C 113.296 111.827,113.048 110.924,113.836 110.420 C 114.098 110.252,114.641 109.470,115.041 108.683 C 115.802 107.187,116.657 106.832,117.047 107.849 M313.820 114.599 C 313.603 114.862,313.238 116.450,313.009 118.130 C 312.780 119.809,312.298 122.340,311.938 123.753 C 311.208 126.624,311.328 126.921,313.359 127.268 C 315.407 127.619,315.676 127.209,316.248 122.854 C 316.535 120.675,316.884 118.159,317.024 117.262 C 317.403 114.833,315.167 112.974,313.820 114.599 M115.460 118.324 C 115.985 119.173,115.229 120.229,114.096 120.229 C 112.822 120.229,112.733 119.984,113.571 118.787 C 114.199 117.891,115.062 117.680,115.460 118.324 M110.019 126.992 C 109.757 127.086,109.542 127.350,109.542 127.578 C 109.542 128.086,108.401 129.389,107.956 129.389 C 107.779 129.389,107.634 129.147,107.634 128.851 C 107.634 128.196,109.923 126.200,110.258 126.563 C 110.389 126.706,110.281 126.899,110.019 126.992 M307.357 126.585 C 307.007 126.727,307.041 127.005,307.494 127.697 C 308.203 128.778,308.779 128.586,308.779 127.268 C 308.779 126.375,308.366 126.177,307.357 126.585 M302.672 128.398 C 302.672 129.497,302.847 129.757,303.817 130.095 C 305.146 130.559,305.678 127.838,304.358 127.331 C 303.063 126.834,302.672 127.081,302.672 128.398 M299.873 134.224 C 299.397 134.700,299.619 136.066,300.375 137.305 C 300.958 138.261,301.046 138.759,300.764 139.501 C 300.127 141.176,303.653 145.802,305.568 145.802 C 306.049 145.802,306.561 145.992,306.705 146.224 C 307.053 146.788,307.620 145.893,307.628 144.765 C 307.634 143.853,306.635 143.130,305.369 143.130 C 304.935 143.130,304.580 142.983,304.580 142.804 C 304.580 142.625,304.151 142.015,303.626 141.448 C 302.476 140.207,302.396 139.070,303.435 138.740 C 304.498 138.403,304.408 136.978,303.244 135.723 C 302.570 134.996,302.290 134.867,302.290 135.286 C 302.290 136.236,301.160 135.968,300.763 134.924 C 300.376 133.906,300.272 133.824,299.873 134.224 M303.053 137.214 C 303.053 138.188,302.532 138.487,302.088 137.768 C 301.770 137.254,302.148 136.260,302.660 136.260 C 302.876 136.260,303.053 136.689,303.053 137.214 M269.478 139.892 C 270.521 140.420,271.374 141.053,271.374 141.299 C 271.374 141.900,272.919 143.511,273.496 143.511 C 274.254 143.511,278.681 148.483,278.540 149.178 C 278.385 149.945,276.355 149.845,274.699 148.989 C 274.107 148.683,272.774 148.332,271.735 148.209 C 269.772 147.976,269.222 147.471,270.702 147.259 C 272.260 147.037,271.947 145.896,270.015 144.759 C 269.028 144.178,267.856 143.327,267.412 142.868 C 266.320 141.742,264.682 141.352,264.377 142.146 C 264.230 142.530,264.486 142.969,265.089 143.364 C 266.935 144.573,265.977 146.799,264.057 145.762 C 263.158 145.276,252.253 144.825,251.197 145.230 C 250.769 145.394,250.765 145.535,251.173 146.026 C 252.538 147.671,239.980 148.991,238.067 147.403 C 237.787 147.170,236.793 146.863,235.859 146.720 C 232.701 146.237,231.543 144.617,233.973 144.083 C 234.605 143.944,235.624 143.580,236.238 143.274 C 236.851 142.968,238.610 142.464,240.146 142.154 C 241.682 141.844,243.579 141.311,244.361 140.970 C 245.406 140.515,246.418 140.408,248.178 140.568 C 249.510 140.689,251.287 140.594,252.183 140.355 C 253.529 139.995,254.018 140.031,255.154 140.573 C 256.972 141.440,258.607 141.393,259.553 140.447 C 260.103 139.897,261.129 139.579,263.084 139.351 C 267.327 138.857,267.459 138.868,269.478 139.892 M143.725 143.166 C 144.382 144.229,139.892 145.498,138.529 144.636 C 138.225 144.444,138.063 144.279,138.168 144.270 C 138.273 144.261,139.303 143.927,140.458 143.527 C 142.958 142.663,143.385 142.616,143.725 143.166 M161.377 143.563 C 163.684 144.122,163.771 144.218,163.891 146.332 C 163.983 147.963,163.910 148.130,163.007 148.348 C 162.466 148.479,161.135 148.975,160.050 149.449 C 158.397 150.172,157.316 150.324,153.371 150.386 C 147.098 150.485,146.991 150.476,147.710 149.892 C 148.025 149.637,148.736 148.731,149.289 147.879 C 150.020 146.754,150.713 146.205,151.820 145.873 C 152.659 145.622,153.558 145.159,153.818 144.846 C 154.097 144.510,154.941 144.272,155.867 144.269 C 156.734 144.266,157.872 144.025,158.397 143.734 C 158.922 143.443,159.404 143.188,159.468 143.167 C 159.533 143.147,160.392 143.325,161.377 143.563 M97.560 145.260 C 97.089 146.488,97.307 147.710,97.996 147.704 C 99.374 147.692,100.359 146.121,99.578 145.181 C 98.990 144.472,97.845 144.517,97.560 145.260 M257.252 146.524 C 257.252 147.419,254.690 147.590,253.603 146.768 C 252.924 146.254,253.044 146.206,255.057 146.195 C 256.264 146.189,257.252 146.337,257.252 146.524 M132.971 150.559 C 133.916 152.001,133.188 153.053,131.245 153.053 C 130.617 153.053,129.761 153.236,129.345 153.459 C 127.572 154.407,126.885 153.737,128.195 152.339 C 129.220 151.245,129.579 151.087,130.587 151.289 C 131.595 151.491,131.703 151.443,131.311 150.971 C 131.058 150.665,130.961 150.236,131.097 150.017 C 131.515 149.340,132.326 149.574,132.971 150.559 M101.908 153.748 C 101.908 154.617,101.667 155.450,101.336 155.725 C 100.701 156.252,100.543 158.779,101.145 158.779 C 101.355 158.779,101.527 158.384,101.527 157.901 C 101.527 157.418,101.678 156.860,101.862 156.660 C 102.335 156.148,102.648 152.702,102.244 152.452 C 102.059 152.338,101.908 152.921,101.908 153.748 M214.122 163.168 C 214.122 163.784,213.773 163.875,212.817 163.509 C 211.888 163.152,212.102 162.595,213.168 162.595 C 213.762 162.595,214.122 162.812,214.122 163.168 M158.538 167.653 C 158.888 168.959,158.860 169.022,157.653 169.647 C 156.177 170.410,156.107 170.393,156.107 169.290 C 156.107 167.564,158.146 166.190,158.538 167.653 M216.626 181.410 C 216.928 181.579,217.176 182.091,217.176 182.547 C 217.176 183.362,217.165 183.361,216.532 182.457 C 215.808 181.423,215.235 178.366,215.600 177.486 C 215.732 177.168,215.893 177.852,215.958 179.005 C 216.033 180.332,216.279 181.215,216.626 181.410 M94.389 194.194 C 93.175 194.774,91.970 197.904,92.579 198.891 C 92.699 199.085,92.967 200.917,93.175 202.962 C 94.198 213.065,98.132 224.463,101.315 226.548 C 101.830 226.886,102.448 227.758,102.689 228.487 C 103.211 230.068,104.137 230.085,104.883 228.529 C 105.315 227.628,105.247 226.854,104.383 222.808 C 103.834 220.235,103.227 216.714,103.034 214.984 C 102.841 213.254,102.325 210.850,101.886 209.641 C 101.448 208.432,100.769 206.548,100.379 205.455 C 99.988 204.362,99.228 202.820,98.689 202.027 C 98.151 201.235,97.710 200.144,97.710 199.603 C 97.710 199.062,97.458 198.286,97.150 197.878 C 96.841 197.471,96.584 196.322,96.577 195.324 C 96.564 193.336,96.382 193.242,94.389 194.194 M324.645 201.644 C 324.229 208.160,324.517 214.679,325.301 216.508 C 327.075 220.643,332.227 215.136,332.712 208.587 C 332.911 205.888,330.633 202.311,327.094 199.769 C 326.056 199.023,325.177 198.066,325.098 197.596 C 325.021 197.134,324.817 198.956,324.645 201.644 M316.412 205.453 C 316.412 212.121,316.508 213.428,317.080 214.541 C 317.875 216.087,318.337 203.219,317.566 201.007 C 317.351 200.391,317.176 199.492,317.176 199.011 C 317.176 198.530,317.004 198.031,316.794 197.901 C 316.544 197.746,316.412 200.358,316.412 205.453 M305.965 201.806 C 302.341 207.806,302.112 222.048,305.655 221.121 C 308.548 220.365,310.089 200.000,307.253 200.000 C 307.144 200.000,306.565 200.813,305.965 201.806 M86.040 208.101 C 87.034 219.598,87.605 222.901,88.599 222.901 C 89.160 222.901,89.281 222.703,89.125 222.042 C 89.014 221.570,88.747 219.809,88.534 218.130 C 88.320 216.450,87.982 213.960,87.783 212.595 C 87.584 211.231,87.307 209.050,87.168 207.749 C 86.742 203.746,85.692 204.074,86.040 208.101 M78.967 212.839 C 77.635 214.453,78.947 221.793,80.931 223.823 C 81.976 224.893,81.596 216.984,80.460 214.034 C 79.749 212.185,79.603 212.068,78.967 212.839 M83.302 216.221 C 83.307 217.061,83.385 217.360,83.476 216.885 C 83.567 216.410,83.564 215.723,83.468 215.358 C 83.373 214.993,83.298 215.382,83.302 216.221 M84.862 234.351 C 82.481 235.311,83.601 237.343,86.688 237.662 C 90.336 238.038,91.089 235.420,87.595 234.504 C 86.546 234.228,85.687 234.006,85.687 234.011 C 85.687 234.015,85.316 234.168,84.862 234.351 M177.662 241.253 C 177.408 242.052,178.039 242.224,178.998 241.617 C 180.260 240.819,180.614 243.739,179.389 244.847 C 178.969 245.227,178.626 245.855,178.626 246.242 C 178.626 247.136,177.618 247.161,177.166 246.279 C 176.590 245.155,176.330 242.050,176.725 241.012 C 177.147 239.901,178.019 240.126,177.662 241.253 M232.411 240.691 C 233.122 241.111,233.596 241.846,233.907 243.005 C 234.157 243.940,234.640 245.338,234.982 246.112 C 236.057 248.549,235.968 250.233,234.697 251.504 C 234.087 252.114,233.588 252.804,233.588 253.037 C 233.588 253.271,233.086 252.949,232.474 252.322 C 231.719 251.550,231.425 250.931,231.562 250.406 C 231.674 249.979,231.648 249.327,231.504 248.956 C 231.155 248.056,230.153 249.309,230.153 250.645 C 230.153 251.370,229.949 251.527,229.008 251.527 C 228.041 251.527,227.863 251.675,227.863 252.481 C 227.863 253.006,227.688 253.435,227.474 253.435 C 227.255 253.435,227.100 252.559,227.118 251.431 C 227.136 250.329,227.037 248.707,226.896 247.826 C 226.716 246.695,226.821 245.864,227.252 245.000 C 227.588 244.327,227.865 243.416,227.868 242.976 C 227.884 240.787,230.417 239.513,232.411 240.691 M184.025 243.416 C 184.257 243.993,184.619 244.841,184.831 245.299 C 185.517 246.783,182.682 249.247,181.569 248.133 C 180.587 247.152,180.855 243.568,181.955 242.972 C 183.405 242.186,183.544 242.215,184.025 243.416 M218.702 244.613 C 218.702 245.009,218.946 245.803,219.245 246.378 C 220.038 247.907,219.377 249.179,218.403 247.996 C 218.017 247.528,217.768 245.883,217.881 244.561 C 217.959 243.659,218.702 243.706,218.702 244.613 M225.573 249.618 C 225.573 250.668,225.415 251.527,225.222 251.527 C 225.029 251.527,224.595 251.633,224.256 251.763 C 223.726 251.966,223.676 251.768,223.895 250.332 C 224.367 247.241,225.573 246.729,225.573 249.618 M243.380 249.062 C 243.689 249.868,243.173 250.303,242.733 249.607 C 242.266 248.868,242.275 248.473,242.760 248.473 C 242.977 248.473,243.255 248.738,243.380 249.062 M68.690 249.859 C 68.683 250.251,68.426 250.906,68.118 251.313 C 67.809 251.721,67.557 252.510,67.557 253.067 C 67.557 253.624,67.142 254.563,66.634 255.154 C 65.269 256.743,64.569 263.195,65.645 264.271 C 65.857 264.483,66.031 265.057,66.031 265.546 C 66.031 266.046,66.324 266.544,66.698 266.682 C 67.066 266.817,67.504 267.155,67.672 267.433 C 67.866 267.754,68.740 267.939,70.069 267.939 C 71.581 267.939,72.223 268.098,72.382 268.514 C 72.559 268.975,72.862 268.862,73.910 267.942 C 74.629 267.310,75.449 266.794,75.733 266.794 C 77.018 266.794,79.389 264.989,79.389 264.012 C 79.389 263.482,77.907 261.080,76.982 260.112 C 76.732 259.850,76.269 259.249,75.954 258.777 C 75.639 258.304,74.566 256.784,73.569 255.398 C 72.572 254.013,71.756 252.747,71.756 252.585 C 71.756 252.423,71.069 251.583,70.229 250.718 C 69.033 249.486,68.700 249.299,68.690 249.859 M195.534 249.589 C 197.637 250.389,197.027 252.290,194.668 252.290 C 193.327 252.290,193.244 252.220,193.211 251.058 C 193.163 249.372,193.838 248.945,195.534 249.589 M223.595 253.119 C 223.444 254.147,222.696 254.446,222.374 253.608 C 222.075 252.829,222.388 252.290,223.141 252.290 C 223.515 252.290,223.675 252.580,223.595 253.119 M164.797 259.650 C 166.555 263.533,166.272 264.002,163.599 261.641 C 162.182 260.389,162.133 260.267,162.382 258.603 C 162.744 256.190,163.348 256.452,164.797 259.650 M240.236 259.010 C 241.552 259.515,240.035 262.214,238.435 262.214 C 237.804 262.214,237.727 262.031,237.932 261.010 C 238.317 259.084,238.964 258.522,240.236 259.010 M255.153 312.917 C 255.153 313.785,252.468 314.487,250.940 314.018 C 248.940 313.404,249.272 312.661,251.622 312.489 C 254.555 312.274,255.153 312.347,255.153 312.917 M162.214 316.718 C 162.214 317.521,161.510 318.321,160.802 318.321 C 160.505 318.321,160.305 317.861,160.305 317.176 C 160.305 316.209,160.454 316.031,161.260 316.031 C 161.924 316.031,162.214 316.239,162.214 316.718 M251.757 316.569 C 252.084 317.419,250.882 319.353,249.868 319.608 C 249.361 319.735,248.855 320.189,248.743 320.617 C 248.631 321.046,248.330 321.348,248.075 321.290 C 247.820 321.231,247.575 321.527,247.531 321.947 C 247.294 324.204,245.981 327.451,245.152 327.828 C 244.467 328.141,244.272 328.543,244.263 329.667 C 244.247 331.470,243.476 332.542,242.301 332.390 C 241.028 332.226,240.533 332.664,240.745 333.770 C 240.972 334.958,240.122 335.074,239.140 333.989 C 238.561 333.349,238.503 332.802,238.726 330.077 C 239.071 325.874,239.178 325.573,240.328 325.573 C 240.858 325.573,241.729 325.229,242.262 324.809 C 242.796 324.389,243.635 324.046,244.126 324.046 C 244.908 324.046,244.992 323.908,244.797 322.936 C 244.556 321.732,245.365 320.992,246.921 320.992 C 247.432 320.992,247.710 320.745,247.710 320.292 C 247.710 318.488,251.245 315.235,251.757 316.569 M166.220 319.081 C 166.633 320.382,163.572 322.579,162.642 321.649 C 161.920 320.928,162.164 319.847,163.131 319.480 C 163.635 319.288,164.161 318.949,164.298 318.726 C 164.719 318.045,165.965 318.275,166.220 319.081 M168.798 323.821 C 169.597 324.678,169.847 325.328,169.847 326.548 C 169.847 330.214,168.947 331.597,168.143 329.167 C 167.940 328.555,167.121 327.050,166.324 325.823 L 164.874 323.593 165.732 322.701 C 166.684 321.712,166.907 321.794,168.798 323.821 M175.573 331.514 C 175.573 332.634,174.126 333.564,173.621 332.768 C 173.441 332.484,173.292 331.951,173.288 331.584 C 173.285 331.217,173.129 330.916,172.942 330.916 C 172.503 330.916,172.072 329.804,172.341 329.368 C 172.759 328.692,175.573 330.559,175.573 331.514 M236.838 332.729 C 236.492 335.513,235.523 336.623,234.886 334.964 C 234.590 334.191,231.679 335.364,231.679 336.256 C 231.679 337.166,229.937 337.902,228.986 337.393 C 227.831 336.775,228.053 335.502,229.404 334.992 C 230.104 334.728,230.655 334.194,230.792 333.649 C 230.996 332.835,231.168 332.767,232.494 332.979 C 233.628 333.161,233.969 333.089,233.969 332.670 C 233.969 332.050,235.802 330.565,236.590 330.546 C 237.002 330.537,237.054 330.993,236.838 332.729 M177.863 334.366 C 177.863 334.743,178.051 335.114,178.282 335.191 C 178.512 335.267,178.620 335.754,178.521 336.272 L 178.341 337.214 178.057 336.355 C 177.901 335.883,177.628 335.496,177.450 335.496 C 176.927 335.496,176.257 333.961,176.502 333.324 C 176.798 332.552,177.863 333.367,177.863 334.366 M185.869 335.491 C 186.793 335.986,186.488 337.160,184.954 339.020 C 183.593 340.669,183.274 340.742,182.121 339.668 C 179.775 337.483,182.959 333.934,185.869 335.491 M193.130 338.740 C 193.391 339.055,193.927 339.313,194.322 339.313 C 195.227 339.313,195.274 340.446,194.370 340.492 C 194.003 340.510,193.120 340.553,192.408 340.587 C 190.993 340.655,190.171 339.849,190.576 338.792 C 190.876 338.010,192.496 337.977,193.130 338.740 M216.350 338.516 C 217.018 338.874,217.145 340.707,216.597 342.080 C 216.397 342.581,216.520 342.748,217.088 342.748 C 218.465 342.748,218.942 343.821,217.765 344.268 C 216.436 344.774,214.616 344.765,214.299 344.252 C 214.162 344.030,213.679 343.894,213.227 343.951 C 212.408 344.054,208.011 342.113,208.020 341.654 C 208.066 339.550,209.975 338.897,211.910 340.324 C 213.266 341.325,214.122 341.000,214.122 339.485 C 214.122 338.968,214.398 338.534,214.790 338.431 C 215.157 338.335,215.512 338.237,215.579 338.212 C 215.645 338.188,215.992 338.325,216.350 338.516 M204.962 339.557 C 205.779 339.809,207.348 341.902,207.064 342.362 C 206.731 342.900,204.068 342.846,203.511 342.290 C 203.155 341.934,202.952 341.934,202.595 342.290 C 201.602 343.284,200.763 342.829,200.763 341.298 C 200.763 339.028,201.825 338.587,204.962 339.557 M225.954 339.065 C 225.954 339.599,224.989 341.844,224.669 342.055 C 223.464 342.849,223.347 341.091,224.523 339.850 C 225.283 339.049,225.954 338.680,225.954 339.065 M223.340 343.702 C 223.340 343.902,223.155 344.126,222.929 344.202 C 222.704 344.277,222.519 344.052,222.519 343.702 C 222.519 343.352,222.704 343.128,222.929 343.203 C 223.155 343.278,223.340 343.503,223.340 343.702 " stroke="none" fill="#d6c1bc" fill-rule="evenodd"></path><path id="path1" d="M159.924 0.456 C 159.399 0.678,158.454 1.088,157.824 1.367 C 157.195 1.647,155.219 2.416,153.435 3.078 C 149.139 4.670,146.544 5.684,145.611 6.135 C 145.191 6.339,143.731 6.899,142.366 7.382 C 139.182 8.507,135.341 10.475,129.580 13.931 C 126.443 15.814,101.321 41.481,96.900 47.321 C 88.772 58.059,83.725 68.016,80.549 79.580 C 79.684 82.729,78.295 87.452,77.463 90.076 C 76.631 92.700,75.951 95.195,75.952 95.620 C 75.953 96.045,75.425 98.536,74.779 101.155 C 73.599 105.937,73.145 111.218,73.781 112.779 C 74.218 113.851,75.419 111.089,75.988 107.702 C 76.224 106.300,76.656 104.772,76.949 104.307 C 77.241 103.842,77.481 102.941,77.481 102.304 C 77.481 101.528,77.670 101.145,78.053 101.145 C 78.368 101.145,78.626 100.973,78.626 100.763 C 78.626 100.553,78.969 100.382,79.389 100.382 C 80.010 100.382,80.153 100.127,80.153 99.020 C 80.153 97.761,80.231 97.668,81.202 97.780 C 82.378 97.915,82.698 102.017,81.633 103.300 C 81.368 103.620,81.019 105.456,80.858 107.380 C 80.457 112.168,79.943 115.888,78.599 123.726 C 77.431 130.536,77.842 137.878,79.625 142.049 C 82.034 147.687,82.126 150.581,79.935 151.874 C 78.234 152.878,78.157 152.827,77.300 150.115 C 76.914 148.897,76.387 147.385,76.129 146.756 C 75.870 146.126,75.539 144.606,75.392 143.377 C 75.192 141.696,74.816 140.737,73.871 139.499 C 73.086 138.470,72.518 137.199,72.353 136.103 C 72.046 134.054,71.615 133.875,71.030 135.553 C 70.412 137.326,70.782 142.706,71.952 148.941 C 72.163 150.066,71.992 150.471,70.614 152.119 C 68.780 154.311,67.742 156.088,67.883 156.795 C 67.937 157.069,67.029 158.230,65.864 159.377 C 62.186 162.996,60.913 166.422,60.482 173.855 C 59.807 185.519,58.363 191.575,55.684 193.989 C 54.577 194.986,53.446 195.802,53.172 195.802 C 52.897 195.802,52.672 195.931,52.672 196.090 C 52.672 196.249,52.199 196.588,51.622 196.843 C 51.045 197.099,49.885 198.012,49.046 198.873 C 48.206 199.733,47.200 200.726,46.809 201.078 C 46.419 201.430,45.175 203.139,44.044 204.876 C 42.234 207.658,40.700 209.742,34.577 217.736 C 33.778 218.778,32.988 219.990,32.821 220.429 C 32.654 220.867,32.104 221.732,31.598 222.350 C 30.100 224.178,26.491 229.474,25.760 230.916 C 25.388 231.651,24.676 232.740,24.179 233.336 C 23.046 234.693,20.798 239.519,19.987 242.335 C 17.887 249.631,17.211 252.705,17.194 255.042 C 17.173 257.896,17.815 263.139,18.328 264.313 C 18.512 264.733,19.198 266.396,19.852 268.009 C 22.227 273.860,26.445 276.727,35.420 278.588 C 39.029 279.337,48.628 278.848,49.223 277.885 C 49.338 277.698,50.681 277.422,52.206 277.272 C 53.731 277.122,55.071 276.850,55.184 276.667 C 55.468 276.208,56.870 276.250,56.870 276.718 C 56.870 276.927,57.525 277.099,58.325 277.099 C 60.052 277.099,61.228 278.388,61.674 280.769 C 61.826 281.584,62.155 282.424,62.405 282.634 C 63.004 283.138,63.599 286.202,64.167 291.708 L 64.630 296.202 62.079 298.578 C 60.676 299.885,58.887 301.876,58.104 303.004 C 56.357 305.517,49.496 309.443,40.956 312.817 C 39.528 313.381,38.187 313.978,37.976 314.142 C 37.766 314.306,36.707 314.790,35.623 315.217 C 34.540 315.644,32.037 316.775,30.061 317.730 C 28.085 318.684,26.345 319.466,26.196 319.466 C 26.046 319.466,25.458 319.809,24.889 320.228 C 24.320 320.648,22.960 321.318,21.866 321.717 C 19.929 322.423,14.332 325.739,11.260 327.999 C 10.420 328.617,7.551 331.373,4.885 334.122 L 0.037 339.122 0.019 360.401 L 0.000 381.679 69.044 381.679 L 138.088 381.679 137.802 380.439 C 137.646 379.757,137.077 378.082,136.538 376.718 C 135.519 374.136,135.061 372.608,133.392 366.221 C 130.761 356.152,128.943 341.532,129.191 332.443 C 129.456 322.761,129.831 315.989,130.355 311.450 C 130.658 308.826,131.065 305.048,131.260 303.053 C 131.642 299.148,132.677 295.870,134.170 293.833 C 137.064 289.888,137.405 289.191,137.405 287.220 C 137.405 285.318,137.219 284.838,134.843 280.601 C 133.385 278.000,131.762 276.639,130.460 276.925 C 128.446 277.367,127.274 275.769,128.662 274.476 C 129.679 273.528,129.522 273.045,126.896 269.030 C 125.748 267.276,124.809 265.708,124.809 265.546 C 124.809 265.384,124.342 264.525,123.770 263.637 C 122.140 261.104,119.466 256.390,119.466 256.050 C 119.466 255.881,118.887 254.493,118.180 252.966 C 116.385 249.090,115.348 246.226,114.126 241.763 C 113.547 239.647,112.880 237.554,112.643 237.112 C 112.407 236.671,112.212 235.826,112.210 235.235 C 112.207 234.644,111.950 233.317,111.637 232.287 C 111.324 231.256,111.066 229.453,111.063 228.279 C 111.060 227.105,110.822 225.115,110.535 223.855 C 109.770 220.503,109.420 214.043,109.942 212.898 C 110.275 212.169,110.186 210.687,109.545 206.266 C 107.944 195.220,107.776 176.543,109.259 174.438 C 109.702 173.808,109.924 172.771,109.924 171.321 C 109.924 169.398,110.043 169.061,110.958 168.394 C 111.901 167.707,111.951 167.550,111.524 166.613 C 111.177 165.851,111.160 165.200,111.459 164.091 C 111.748 163.018,111.739 162.141,111.429 160.990 C 110.870 158.912,111.248 155.257,112.428 151.336 C 112.933 149.656,113.511 147.510,113.713 146.565 C 113.914 145.620,114.436 143.854,114.873 142.640 C 115.723 140.277,115.468 131.728,114.520 130.779 C 113.869 130.129,114.077 129.286,115.278 127.699 C 116.526 126.050,116.719 125.009,115.840 124.671 C 114.487 124.152,112.867 125.420,111.800 127.834 C 111.377 128.789,110.712 129.916,110.321 130.339 C 109.405 131.329,109.217 132.545,109.860 133.321 C 110.296 133.845,110.226 134.088,109.383 134.997 C 108.841 135.582,108.397 136.211,108.397 136.394 C 108.397 136.786,106.743 138.915,105.238 140.459 C 104.655 141.057,103.994 142.074,103.770 142.720 C 102.598 146.079,99.311 140.950,100.021 136.872 C 100.642 133.304,99.878 129.566,99.120 132.466 C 99.003 132.915,98.731 133.174,98.516 133.041 C 97.957 132.696,98.415 131.749,99.272 131.477 C 100.127 131.206,100.284 128.904,99.557 127.308 C 98.825 125.701,98.092 126.355,98.092 128.617 C 98.092 129.284,97.656 130.156,96.943 130.920 C 95.340 132.636,95.120 133.792,96.180 134.921 C 96.978 135.769,97.004 135.956,96.576 137.739 C 96.216 139.240,96.220 140.105,96.596 141.784 C 97.120 144.124,96.737 145.210,95.694 144.344 C 95.303 144.020,95.056 144.028,94.708 144.376 C 93.951 145.133,93.448 143.940,93.699 141.985 C 93.820 141.040,94.164 137.755,94.463 134.684 C 94.883 130.365,95.226 128.605,95.976 126.908 C 97.897 122.566,96.937 120.657,94.489 123.950 C 93.748 124.948,92.981 125.956,92.785 126.191 C 91.612 127.600,90.034 131.112,89.487 133.532 C 88.167 139.370,86.179 139.126,84.963 132.977 C 84.160 128.918,84.182 128.528,85.305 126.872 C 85.830 126.099,86.259 125.104,86.258 124.660 C 86.253 122.806,87.590 120.147,89.116 118.974 C 89.959 118.326,91.937 116.663,93.511 115.279 C 99.036 110.424,99.540 110.353,99.710 114.408 C 99.812 116.842,99.890 117.151,100.151 116.150 C 100.325 115.482,100.684 114.851,100.949 114.750 C 101.214 114.648,101.553 113.913,101.702 113.116 C 102.137 110.798,103.408 109.240,104.114 110.158 C 104.626 110.823,104.649 110.791,104.410 109.733 C 103.773 106.905,103.751 106.308,104.203 104.178 C 104.467 102.934,104.917 101.722,105.204 101.484 C 105.491 101.246,105.725 100.875,105.725 100.660 C 105.725 100.444,106.584 99.444,107.634 98.438 C 108.691 97.424,109.542 96.264,109.542 95.836 C 109.542 95.412,109.885 94.881,110.305 94.656 C 110.744 94.422,111.069 93.857,111.069 93.330 C 111.069 92.825,111.240 92.305,111.450 92.176 C 111.660 92.046,111.832 91.435,111.832 90.817 C 111.832 90.200,111.990 89.695,112.183 89.695 C 112.375 89.695,112.829 89.581,113.191 89.442 C 114.032 89.119,113.618 91.991,112.753 92.481 C 112.026 92.892,112.067 94.518,112.810 94.804 C 113.139 94.930,113.299 95.207,113.167 95.421 C 112.311 96.806,114.569 98.332,115.502 96.999 C 116.088 96.163,117.176 96.279,117.176 97.178 C 117.176 97.471,117.347 97.710,117.557 97.710 C 118.159 97.710,118.002 96.565,117.366 96.321 C 116.703 96.067,116.607 95.199,117.201 94.831 C 117.426 94.693,117.703 94.940,117.818 95.381 C 118.083 96.394,118.709 96.397,119.987 95.392 C 121.408 94.274,121.316 93.312,119.788 93.317 C 119.126 93.319,118.511 93.106,118.421 92.844 C 118.319 92.547,118.613 92.366,119.199 92.366 C 119.755 92.366,120.373 92.014,120.705 91.508 C 121.015 91.035,121.794 90.087,122.435 89.401 L 123.602 88.154 124.423 89.307 L 125.245 90.461 127.508 88.232 C 128.753 87.007,129.771 85.898,129.771 85.769 C 129.771 85.640,130.286 84.771,130.916 83.838 C 131.546 82.905,132.061 81.963,132.061 81.745 C 132.061 81.528,132.576 80.983,133.206 80.534 C 133.836 80.086,134.357 79.516,134.363 79.268 C 134.379 78.660,135.942 76.921,136.752 76.610 C 137.111 76.472,137.405 76.199,137.405 76.002 C 137.405 75.446,135.996 75.949,135.016 76.855 C 133.098 78.629,132.047 79.052,129.177 79.209 C 126.863 79.336,126.336 79.260,126.336 78.804 C 126.336 78.496,126.504 78.244,126.710 78.244 C 126.915 78.244,127.417 77.591,127.825 76.792 C 128.260 75.938,129.288 74.883,130.319 74.232 C 132.256 73.007,132.389 72.328,130.692 72.328 C 130.080 72.328,129.580 72.136,129.580 71.901 C 129.580 71.269,137.354 65.267,138.173 65.267 C 138.365 65.267,138.707 64.924,138.931 64.504 C 139.156 64.084,139.671 63.740,140.076 63.740 C 140.480 63.740,141.462 63.075,142.257 62.262 C 143.052 61.449,144.082 60.588,144.547 60.348 C 145.011 60.108,145.307 59.691,145.203 59.421 C 145.099 59.151,145.632 58.312,146.388 57.556 C 147.218 56.726,147.600 56.084,147.354 55.932 C 147.130 55.793,146.947 55.519,146.947 55.321 C 146.947 54.828,148.226 54.868,148.736 55.377 C 149.034 55.676,149.223 55.675,149.409 55.374 C 149.551 55.144,149.398 54.853,149.070 54.727 C 148.308 54.435,148.294 53.817,149.049 53.817 C 149.365 53.817,149.900 53.129,150.236 52.289 C 150.756 50.988,151.098 50.689,152.545 50.267 C 154.695 49.640,154.837 49.065,152.863 48.980 C 150.869 48.895,150.000 49.158,150.000 49.847 C 150.000 50.154,149.699 50.511,149.332 50.641 C 148.965 50.770,147.944 51.194,147.063 51.583 C 146.182 51.972,145.109 52.290,144.677 52.290 C 143.759 52.290,143.620 51.331,144.490 50.998 C 144.818 50.872,144.980 50.596,144.849 50.384 C 144.554 49.908,142.748 49.872,142.748 50.343 C 142.748 50.761,139.681 52.404,139.410 52.132 C 139.303 52.026,139.828 51.345,140.576 50.618 C 142.000 49.235,146.183 48.172,146.183 49.193 C 146.183 49.927,147.611 49.656,147.813 48.883 C 147.938 48.405,148.588 47.988,149.671 47.690 C 152.251 46.981,154.581 46.104,154.574 45.845 C 154.536 44.523,151.234 43.586,150.544 44.702 C 150.430 44.887,149.810 45.038,149.167 45.038 C 148.176 45.038,148.070 44.952,148.469 44.471 C 149.044 43.777,148.712 42.748,147.913 42.748 C 146.747 42.748,147.364 42.063,148.760 41.808 C 149.547 41.664,150.598 41.284,151.095 40.964 C 151.658 40.601,152.420 40.465,153.115 40.604 C 154.089 40.799,154.332 40.657,155.016 39.498 C 155.670 38.389,156.019 38.168,157.114 38.168 C 157.837 38.168,158.894 37.823,159.463 37.402 C 160.356 36.742,160.663 36.698,161.684 37.084 C 162.660 37.452,163.197 37.411,164.736 36.850 C 165.763 36.475,167.411 36.087,168.399 35.988 C 169.387 35.888,170.395 35.565,170.640 35.270 C 170.885 34.974,171.438 34.733,171.868 34.733 C 172.298 34.733,172.978 34.435,173.380 34.072 C 173.938 33.567,174.649 33.438,176.397 33.525 C 177.988 33.603,178.961 33.456,179.595 33.040 C 180.097 32.712,180.847 32.443,181.262 32.443 C 182.531 32.443,182.571 31.686,181.315 31.435 C 176.335 30.439,182.368 28.961,191.221 29.009 C 193.426 29.021,195.875 28.825,196.664 28.575 C 198.027 28.142,200.010 28.609,199.996 29.358 C 199.989 29.701,197.281 30.892,195.916 31.152 C 194.685 31.387,193.191 32.631,193.622 33.062 C 193.749 33.190,194.343 33.124,194.941 32.915 C 197.558 32.003,204.084 32.318,204.348 33.368 C 204.481 33.897,204.974 34.527,205.443 34.770 C 207.139 35.644,208.015 36.745,208.015 38.003 C 208.015 38.722,208.244 39.319,208.567 39.443 C 208.870 39.559,209.226 40.222,209.358 40.915 C 209.764 43.045,210.909 44.156,211.835 43.318 C 212.564 42.658,212.603 42.676,213.153 43.934 C 213.686 45.149,213.736 45.176,213.966 44.370 C 214.272 43.299,214.311 43.302,215.566 44.466 C 216.697 45.514,217.192 45.632,217.822 45.003 C 218.111 44.713,218.462 44.705,218.969 44.976 C 219.370 45.191,220.391 45.274,221.237 45.161 C 222.686 44.966,222.824 45.035,223.589 46.332 C 224.465 47.817,225.299 48.008,229.829 47.760 C 230.806 47.706,231.718 47.845,231.856 48.069 C 232.023 48.338,232.338 48.352,232.792 48.109 C 233.328 47.822,233.711 47.988,234.558 48.871 C 235.514 49.870,235.896 50.000,237.871 50.000 C 240.266 50.000,241.985 50.773,241.985 51.849 C 241.985 53.469,239.972 57.668,238.940 58.202 C 237.222 59.090,235.680 61.125,236.351 61.619 C 237.208 62.251,237.786 63.578,237.786 64.911 C 237.786 67.887,240.275 69.714,240.980 67.256 C 241.420 65.724,242.133 65.852,242.295 67.491 C 242.361 68.157,242.498 68.702,242.600 68.702 C 242.932 68.702,244.631 66.620,244.867 65.923 C 245.321 64.582,249.585 60.977,251.798 60.063 C 252.593 59.735,253.550 59.194,253.923 58.862 C 254.548 58.307,254.649 58.325,255.185 59.091 C 255.506 59.549,255.963 59.924,256.200 59.924 C 257.132 59.924,259.178 61.704,259.558 62.845 C 259.778 63.507,260.371 64.493,260.875 65.037 C 261.552 65.768,261.822 66.550,261.907 68.029 C 262.044 70.403,262.784 70.797,264.593 69.460 C 266.674 67.922,268.321 69.523,268.321 73.085 C 268.321 74.052,268.121 74.829,267.844 74.946 C 267.497 75.092,267.541 75.258,268.005 75.553 C 268.355 75.776,268.757 76.479,268.896 77.114 C 269.128 78.170,269.269 78.260,270.544 78.161 C 271.888 78.057,271.949 78.108,272.261 79.580 C 272.439 80.420,273.160 82.653,273.865 84.542 C 274.921 87.376,275.176 88.664,275.324 91.902 C 275.511 96.037,276.009 97.436,277.423 97.805 C 277.956 97.945,278.261 97.764,278.459 97.188 C 279.262 94.855,279.310 94.776,279.351 95.718 C 279.449 97.963,281.811 96.756,282.210 94.257 C 282.672 91.371,284.333 92.517,284.346 95.732 C 284.349 96.482,284.734 97.499,285.292 98.231 C 285.809 98.909,286.488 100.561,286.801 101.902 C 287.114 103.242,287.613 104.476,287.910 104.642 C 288.374 104.901,288.368 105.197,287.865 106.724 C 287.344 108.307,287.342 108.676,287.848 110.072 C 288.190 111.015,288.306 112.022,288.140 112.595 C 287.637 114.326,287.775 115.864,288.584 117.538 C 289.040 118.483,289.302 119.605,289.196 120.160 C 289.094 120.694,289.192 121.529,289.414 122.016 C 289.707 122.660,289.683 123.305,289.326 124.389 C 288.592 126.611,289.114 130.768,290.260 131.830 C 290.873 132.398,291.190 133.212,291.319 134.546 C 291.516 136.587,292.498 139.524,293.296 140.458 C 294.232 141.554,295.141 148.718,294.893 153.053 C 294.377 162.103,294.439 163.246,295.504 164.311 C 296.393 165.200,296.441 165.415,296.101 167.008 C 295.851 168.181,295.869 169.440,296.157 170.915 C 296.390 172.112,296.750 174.552,296.955 176.336 C 297.161 178.120,297.516 180.095,297.745 180.725 C 298.608 183.096,298.623 189.975,297.776 194.275 C 297.341 196.479,297.003 199.055,297.023 200.000 C 297.123 204.551,296.564 218.364,296.206 220.186 C 295.983 221.316,295.802 223.673,295.802 225.423 C 295.802 227.173,295.557 229.854,295.257 231.382 C 294.958 232.910,294.426 235.878,294.074 237.977 C 293.723 240.076,293.195 242.944,292.901 244.350 C 292.607 245.756,292.366 247.356,292.366 247.904 C 292.366 249.493,291.038 253.525,289.617 256.254 C 289.410 256.650,288.846 258.295,288.363 259.910 C 287.880 261.524,287.058 263.691,286.537 264.724 C 286.016 265.757,285.477 267.125,285.340 267.764 C 285.202 268.402,284.711 269.518,284.248 270.244 C 281.128 275.145,279.637 278.624,280.084 279.962 C 281.382 283.842,280.828 303.716,278.999 318.893 C 278.771 320.782,278.422 324.905,278.223 328.053 C 277.633 337.413,275.511 351.091,273.843 356.298 C 273.507 357.347,272.804 359.666,272.280 361.450 C 270.749 366.672,268.021 373.118,263.840 381.393 C 263.760 381.551,294.364 381.679,331.848 381.679 L 400.000 381.679 400.000 364.128 L 400.000 346.576 397.805 344.846 C 395.942 343.376,393.834 341.973,389.896 339.580 C 385.850 337.121,384.519 336.061,382.729 333.878 C 381.592 332.491,379.946 330.714,379.072 329.929 C 377.993 328.960,377.481 328.187,377.481 327.526 C 377.481 326.618,375.916 324.809,375.131 324.809 C 374.954 324.809,374.809 324.364,374.809 323.821 C 374.809 321.608,368.467 320.219,366.199 321.934 C 365.791 322.243,365.167 322.500,364.812 322.507 C 364.456 322.514,363.861 323.034,363.489 323.664 C 362.838 324.766,361.069 325.324,361.069 324.427 C 361.069 324.218,360.873 324.046,360.633 324.046 C 360.250 324.046,357.945 323.070,356.017 322.092 C 355.652 321.907,355.158 321.756,354.918 321.756 C 354.115 321.756,347.228 318.209,346.030 317.179 C 344.119 315.535,340.767 313.118,339.122 312.198 C 338.282 311.728,336.307 310.653,334.733 309.809 C 333.158 308.964,331.269 307.902,330.534 307.449 C 329.800 306.995,328.941 306.501,328.626 306.350 C 324.264 304.268,321.576 301.479,320.938 298.377 C 320.158 294.583,320.149 294.409,320.705 293.854 C 322.480 292.078,323.097 274.115,321.628 266.985 C 321.281 265.305,320.750 262.729,320.447 261.260 C 320.143 259.790,319.776 256.846,319.631 254.717 L 319.367 250.847 321.039 250.577 C 328.379 249.389,335.194 246.270,337.082 243.233 C 339.129 239.941,342.220 228.345,343.345 219.739 C 343.653 217.384,344.088 214.256,344.312 212.786 C 345.112 207.535,345.388 204.670,345.784 197.519 C 346.790 179.332,347.764 170.811,348.962 169.701 C 350.186 168.566,350.438 166.896,350.295 160.878 L 350.185 156.298 348.685 154.008 C 347.860 152.748,346.444 150.711,345.539 149.481 C 344.634 148.251,343.893 146.915,343.893 146.513 C 343.893 146.111,343.289 144.584,342.552 143.119 C 340.563 139.169,339.128 138.255,333.015 137.047 C 328.936 136.241,326.581 134.820,326.274 132.980 C 326.131 132.120,325.753 130.791,325.433 130.025 C 325.113 129.259,324.491 127.300,324.051 125.671 C 323.611 124.043,322.919 122.013,322.514 121.162 C 321.885 119.843,321.783 118.826,321.823 114.292 C 321.874 108.528,321.233 105.535,319.391 102.949 L 318.538 101.751 318.277 102.688 C 318.133 103.204,317.998 104.689,317.977 105.989 C 317.956 107.289,317.767 108.458,317.557 108.588 C 317.347 108.718,317.176 109.590,317.176 110.527 C 317.176 114.078,314.105 113.848,313.696 110.266 C 313.193 105.866,312.597 102.242,312.272 101.612 C 312.085 101.250,311.808 100.268,311.656 99.428 C 311.505 98.589,311.250 97.816,311.090 97.711 C 310.931 97.605,310.529 95.372,310.198 92.748 C 309.867 90.124,309.479 87.677,309.337 87.309 C 309.159 86.849,309.263 86.641,309.669 86.641 C 309.994 86.641,310.371 86.462,310.507 86.243 C 310.830 85.719,309.616 83.879,309.140 84.173 C 308.185 84.763,307.252 83.916,307.252 82.458 C 307.252 80.874,307.662 80.534,309.573 80.534 C 310.538 80.534,310.687 80.677,310.687 81.599 C 310.687 83.238,313.172 87.405,314.150 87.405 C 314.801 87.405,314.861 85.256,314.277 82.899 C 312.975 77.652,310.216 71.891,303.887 61.201 C 303.147 59.952,300.292 55.725,299.285 54.389 C 297.194 51.614,292.977 45.845,290.458 42.315 C 286.111 36.223,279.543 29.475,274.618 26.042 C 272.939 24.871,270.019 22.757,268.130 21.344 C 266.240 19.931,262.291 17.534,259.353 16.017 C 256.415 14.500,253.336 12.680,252.510 11.973 C 251.659 11.245,250.582 10.684,250.027 10.681 C 249.035 10.675,246.584 10.097,242.748 8.964 C 233.451 6.217,206.771 4.631,188.679 5.749 C 184.934 5.981,180.840 6.230,179.580 6.302 C 178.321 6.375,176.652 6.705,175.871 7.034 C 173.502 8.035,170.992 7.853,170.992 6.679 C 170.992 6.155,171.121 5.724,171.279 5.723 C 172.283 5.714,172.851 3.426,172.271 1.723 L 171.684 -0.000 166.281 0.026 C 163.309 0.040,160.448 0.233,159.924 0.456 M146.842 13.613 C 146.923 13.857,146.593 14.178,146.109 14.326 C 145.625 14.473,144.971 14.803,144.656 15.057 C 144.342 15.312,143.139 15.903,141.985 16.371 C 139.382 17.425,137.391 18.375,136.641 18.922 C 136.326 19.152,134.866 19.721,133.397 20.187 C 131.927 20.654,130.081 21.458,129.294 21.974 C 127.139 23.386,127.570 22.388,130.261 19.733 C 132.466 17.558,134.769 16.142,138.931 14.402 C 139.666 14.095,140.697 13.657,141.221 13.428 C 142.459 12.888,146.648 13.026,146.842 13.613 M238.432 22.680 C 238.242 23.253,237.023 23.435,236.550 22.962 C 236.334 22.747,236.261 22.302,236.387 21.975 C 236.659 21.266,238.672 21.961,238.432 22.680 M188.359 22.519 C 188.664 23.014,186.261 23.014,185.496 22.519 C 185.076 22.248,185.350 22.148,186.523 22.143 C 187.403 22.140,188.229 22.309,188.359 22.519 M194.820 22.502 C 195.465 22.703,197.281 23.253,198.855 23.725 C 200.429 24.196,202.056 24.805,202.470 25.077 C 202.884 25.350,203.534 25.573,203.914 25.573 C 204.293 25.573,204.711 25.873,204.841 26.240 C 204.971 26.608,205.350 27.224,205.683 27.611 C 206.503 28.563,205.419 29.389,203.349 29.389 C 201.890 29.389,201.739 28.484,203.062 27.667 C 203.722 27.258,203.061 26.718,201.900 26.718 C 200.789 26.718,198.108 25.792,195.204 24.405 C 194.350 23.998,193.079 23.664,192.378 23.664 L 191.105 23.664 191.985 22.901 C 192.989 22.030,193.206 22.000,194.820 22.502 M161.275 24.453 C 161.609 24.994,160.570 25.792,158.015 26.957 C 156.861 27.483,155.458 28.161,154.898 28.464 C 154.338 28.766,153.050 29.121,152.035 29.253 C 151.021 29.384,149.891 29.753,149.524 30.072 C 148.856 30.651,145.920 31.819,143.629 32.417 C 142.179 32.795,141.091 33.608,137.786 36.789 C 135.547 38.944,132.755 40.633,129.190 41.988 C 128.323 42.317,128.218 42.525,128.431 43.491 C 128.762 44.998,128.199 45.913,126.235 47.064 C 124.199 48.257,122.779 49.940,121.505 52.670 C 120.966 53.825,120.221 55.115,119.851 55.534 C 119.481 55.954,118.967 56.957,118.709 57.762 C 118.451 58.567,117.485 60.076,116.563 61.114 C 115.640 62.153,114.885 63.353,114.885 63.781 C 114.885 64.210,113.941 65.924,112.786 67.591 C 111.632 69.257,110.686 70.919,110.685 71.284 C 110.684 71.648,110.383 72.405,110.017 72.965 C 107.697 76.514,105.628 79.389,105.396 79.389 C 104.063 79.389,103.097 84.894,103.983 87.437 C 104.400 88.636,104.501 89.815,104.330 91.522 L 104.090 93.922 97.235 101.159 C 90.779 107.976,88.411 109.874,89.110 107.671 C 89.575 106.206,90.072 102.424,90.074 100.335 C 90.075 99.086,90.475 96.968,91.031 95.266 C 92.148 91.842,92.175 91.485,91.400 90.302 C 90.766 89.335,91.125 87.711,92.756 84.160 C 93.142 83.321,93.902 81.603,94.446 80.344 C 95.869 77.045,98.437 72.144,99.483 70.732 C 99.977 70.063,100.382 69.369,100.382 69.188 C 100.382 68.724,104.951 61.946,108.105 57.731 C 115.510 47.836,124.947 39.623,135.526 33.870 C 139.194 31.875,140.120 31.406,141.794 30.700 C 142.634 30.345,143.578 29.840,143.893 29.578 C 144.208 29.315,144.981 29.013,145.611 28.906 C 146.240 28.800,147.700 28.341,148.855 27.887 C 154.054 25.844,157.923 24.531,159.351 24.325 C 159.981 24.234,160.615 24.134,160.760 24.103 C 160.905 24.072,161.137 24.229,161.275 24.453 M211.450 28.626 C 211.450 29.074,211.157 29.074,210.115 28.626 C 209.438 28.335,209.471 28.295,210.401 28.271 C 210.978 28.256,211.450 28.416,211.450 28.626 M256.489 30.030 C 257.622 31.228,259.519 32.439,260.266 32.441 C 261.012 32.443,264.332 34.748,266.603 36.840 C 267.653 37.807,270.358 40.252,272.615 42.273 C 274.871 44.294,276.718 46.083,276.718 46.249 C 276.718 46.415,277.804 47.713,279.132 49.134 C 285.560 56.013,291.989 66.031,289.974 66.031 C 289.323 66.031,285.526 62.074,284.484 60.310 C 284.005 59.499,283.605 59.225,283.124 59.377 C 282.631 59.534,282.443 59.390,282.443 58.859 C 282.443 58.454,281.865 57.026,281.158 55.684 C 279.009 51.605,278.706 50.995,278.281 49.897 C 278.056 49.315,277.413 48.665,276.852 48.452 C 276.291 48.239,274.357 46.546,272.553 44.690 C 270.750 42.835,268.718 41.034,268.038 40.689 C 267.358 40.343,265.566 38.948,264.056 37.588 C 262.546 36.227,261.096 35.115,260.835 35.115 C 260.574 35.115,260.023 34.685,259.610 34.160 C 259.197 33.635,258.702 33.206,258.510 33.206 C 258.104 33.206,254.069 29.839,253.880 29.343 C 253.586 28.569,255.611 29.102,256.489 30.030 M216.830 30.172 C 217.595 30.581,217.496 31.302,216.676 31.292 C 215.889 31.282,215.158 30.638,215.432 30.195 C 215.755 29.671,215.890 29.669,216.830 30.172 M185.496 30.534 C 185.496 30.744,185.840 30.916,186.260 30.916 C 186.679 30.916,187.023 30.744,187.023 30.534 C 187.023 30.324,186.679 30.153,186.260 30.153 C 185.840 30.153,185.496 30.324,185.496 30.534 M173.200 31.162 C 172.340 32.022,168.702 32.323,168.702 31.533 C 168.702 30.944,169.673 30.691,172.315 30.592 C 173.718 30.538,173.782 30.580,173.200 31.162 M220.163 33.392 C 221.346 34.640,220.851 35.473,219.616 34.313 C 218.741 33.492,218.386 32.435,218.989 32.449 C 219.146 32.453,219.674 32.877,220.163 33.392 M182.443 33.508 L 181.107 34.130 182.189 34.269 C 183.584 34.448,184.351 34.143,184.351 33.409 C 184.351 32.701,184.156 32.711,182.443 33.508 M197.876 35.800 C 198.014 36.236,197.905 36.962,197.633 37.413 C 197.196 38.135,197.242 38.308,198.013 38.868 C 198.495 39.218,199.814 40.234,200.946 41.126 C 202.077 42.018,203.099 42.748,203.219 42.748 C 203.685 42.748,203.403 41.567,202.889 41.370 C 202.589 41.254,202.169 40.659,201.955 40.046 C 201.393 38.435,202.202 38.589,204.108 40.458 C 206.276 42.583,207.169 42.519,207.108 40.243 C 207.067 38.719,206.918 38.426,205.916 37.896 C 205.286 37.562,204.513 37.140,204.198 36.958 C 201.108 35.166,197.463 34.498,197.876 35.800 M211.450 37.755 C 211.450 37.948,211.555 38.377,211.682 38.709 C 211.809 39.041,211.744 39.313,211.536 39.313 C 211.328 39.313,211.076 38.884,210.975 38.359 C 210.875 37.834,210.941 37.405,211.122 37.405 C 211.302 37.405,211.450 37.562,211.450 37.755 M162.254 39.455 C 162.007 39.753,161.176 40.115,160.407 40.259 C 159.638 40.403,158.661 40.765,158.236 41.062 C 157.811 41.360,156.729 41.603,155.831 41.603 C 154.453 41.603,154.198 41.722,154.198 42.366 C 154.198 43.790,158.352 43.444,161.069 41.794 C 162.417 40.975,163.765 40.456,164.554 40.452 C 166.580 40.443,167.135 39.841,165.400 39.533 C 164.592 39.390,163.655 39.192,163.317 39.093 C 162.980 38.995,162.501 39.158,162.254 39.455 M180.847 43.570 C 179.746 43.958,178.797 44.275,178.736 44.275 C 178.675 44.275,178.626 44.536,178.626 44.856 C 178.626 45.939,180.325 46.341,183.114 45.918 C 184.529 45.704,185.744 45.676,185.814 45.856 C 185.884 46.036,186.117 46.183,186.332 46.183 C 186.547 46.183,186.616 45.904,186.485 45.562 C 186.354 45.221,186.446 44.701,186.689 44.408 C 187.732 43.152,183.683 42.571,180.847 43.570 M175.763 46.656 C 174.924 46.837,173.464 47.172,172.519 47.400 C 171.574 47.629,170.029 47.938,169.084 48.088 C 166.564 48.487,164.952 49.423,165.906 49.933 C 166.389 50.192,166.852 50.189,167.324 49.924 C 167.730 49.697,168.830 49.638,169.929 49.784 C 172.013 50.060,175.474 49.175,175.818 48.277 C 175.923 48.003,176.426 47.674,176.936 47.546 C 178.993 47.030,177.896 46.197,175.763 46.656 M135.797 51.240 C 136.382 51.948,134.790 53.748,133.318 54.042 C 131.923 54.322,131.875 53.002,133.254 52.265 C 133.647 52.054,133.969 51.630,133.969 51.322 C 133.969 50.640,135.253 50.582,135.797 51.240 M154.198 51.527 C 154.198 51.737,154.456 51.908,154.771 51.908 C 155.086 51.908,155.344 51.737,155.344 51.527 C 155.344 51.317,155.086 51.145,154.771 51.145 C 154.456 51.145,154.198 51.317,154.198 51.527 M164.457 52.334 C 160.987 52.616,158.515 53.696,157.653 55.307 C 157.436 55.713,156.687 56.234,155.990 56.464 C 155.292 56.694,154.132 57.476,153.410 58.200 C 152.555 59.059,151.730 59.522,151.038 59.530 C 150.454 59.537,149.883 59.784,149.770 60.080 C 149.656 60.376,149.159 60.719,148.666 60.843 C 146.636 61.353,144.700 64.122,146.374 64.122 C 146.899 64.122,147.328 63.977,147.328 63.799 C 147.328 62.903,149.723 61.069,150.893 61.069 C 152.508 61.069,149.936 64.086,147.424 65.139 C 146.135 65.679,145.644 67.176,146.756 67.176 C 147.071 67.176,147.328 67.043,147.328 66.881 C 147.328 66.719,147.972 66.251,148.760 65.842 C 150.045 65.174,151.556 63.819,152.807 62.214 C 154.013 60.667,154.923 60.627,154.693 62.131 L 154.476 63.550 155.673 62.429 C 157.073 61.117,157.139 60.824,156.108 60.497 C 155.174 60.200,156.028 58.752,157.556 58.041 C 158.721 57.500,158.740 57.508,158.497 58.436 C 158.379 58.890,158.503 59.372,158.784 59.545 C 159.290 59.858,161.069 59.256,161.069 58.771 C 161.069 57.861,164.296 54.964,165.574 54.727 C 170.485 53.814,169.600 51.917,164.457 52.334 M136.641 60.850 C 136.641 61.628,134.793 62.977,133.727 62.977 C 132.176 62.977,133.060 61.554,135.122 60.731 C 136.433 60.208,136.641 60.225,136.641 60.850 M153.297 64.313 C 153.163 64.662,153.296 64.885,153.638 64.885 C 153.946 64.885,154.198 64.628,154.198 64.313 C 154.198 63.998,154.045 63.740,153.858 63.740 C 153.670 63.740,153.418 63.998,153.297 64.313 M141.985 66.693 C 141.670 66.815,140.725 67.352,139.885 67.887 C 139.046 68.422,138.057 68.814,137.688 68.757 C 137.319 68.700,136.919 68.910,136.799 69.224 C 136.678 69.537,136.066 69.973,135.437 70.192 C 134.224 70.615,134.276 71.374,135.519 71.374 C 135.926 71.374,136.260 71.632,136.260 71.947 C 136.260 72.261,136.523 72.519,136.844 72.519 C 137.562 72.519,138.100 71.288,137.473 71.079 C 136.525 70.763,137.077 70.259,138.139 70.471 C 138.763 70.596,139.478 70.500,139.761 70.254 C 143.804 66.737,144.416 65.756,141.985 66.693 M133.111 74.096 C 131.184 76.130,130.909 76.868,131.930 77.260 C 132.668 77.543,134.292 76.027,135.251 74.160 C 136.623 71.488,135.609 71.457,133.111 74.096 M298.282 100.955 C 298.492 101.551,299.136 102.512,299.714 103.089 C 300.291 103.667,300.763 104.515,300.763 104.973 C 300.763 105.431,301.189 106.311,301.708 106.929 C 302.560 107.940,302.970 108.964,304.288 113.359 C 304.987 115.691,304.898 124.046,304.174 124.046 C 303.759 124.046,303.280 123.153,302.643 121.189 C 301.763 118.472,300.999 117.643,300.522 118.886 C 299.945 120.390,298.220 117.629,298.446 115.563 C 298.486 115.200,298.012 114.409,297.394 113.805 C 296.776 113.200,296.165 112.380,296.038 111.983 C 295.910 111.585,295.379 110.765,294.858 110.160 C 294.336 109.555,294.002 108.911,294.115 108.729 C 294.366 108.323,295.419 108.286,295.422 108.683 C 295.422 108.841,296.453 110.074,297.712 111.424 C 298.970 112.774,300.000 114.217,300.000 114.632 C 300.000 115.361,300.024 115.363,300.763 114.695 C 301.799 113.758,301.727 112.956,300.382 110.435 C 299.752 109.255,299.234 107.841,299.231 107.294 C 299.224 106.090,298.267 103.242,297.502 102.150 C 296.812 101.165,296.759 99.492,297.424 99.713 C 297.686 99.800,298.073 100.359,298.282 100.955 M119.728 101.071 C 119.164 101.659,118.702 102.438,118.702 102.801 C 118.702 103.164,118.178 103.973,117.538 104.599 C 116.477 105.636,116.316 106.489,117.181 106.489 C 117.825 106.489,121.374 101.729,121.374 100.864 C 121.374 99.723,120.970 99.774,119.728 101.071 M114.772 102.974 C 113.378 104.402,112.890 106.154,113.740 106.679 C 113.950 106.809,114.122 106.772,114.122 106.598 C 114.122 106.423,114.723 105.368,115.458 104.252 C 117.497 101.156,117.160 100.529,114.772 102.974 M294.681 102.717 C 294.971 103.259,294.936 103.435,294.538 103.435 C 293.904 103.435,292.652 102.132,292.975 101.808 C 293.340 101.443,294.262 101.934,294.681 102.717 M106.767 105.192 C 106.614 105.345,106.489 105.734,106.489 106.056 C 106.489 106.486,106.601 106.528,106.913 106.217 C 107.147 105.983,107.272 105.594,107.191 105.353 C 107.111 105.112,106.920 105.039,106.767 105.192 M115.041 108.683 C 114.641 109.470,114.098 110.252,113.836 110.420 C 113.048 110.924,113.296 111.827,114.331 112.221 C 115.197 112.550,115.279 112.746,115.087 114.024 C 114.914 115.179,114.945 115.291,115.248 114.599 C 115.496 114.034,115.954 113.740,116.591 113.740 C 117.941 113.740,118.040 111.572,116.698 111.382 C 115.515 111.213,115.359 109.788,116.441 109.031 C 116.954 108.671,117.188 108.215,117.047 107.849 C 116.657 106.832,115.802 107.187,115.041 108.683 M316.595 114.877 C 317.132 115.470,317.224 115.982,317.024 117.262 C 316.884 118.159,316.535 120.675,316.248 122.854 C 315.676 127.209,315.407 127.619,313.359 127.268 C 311.328 126.921,311.208 126.624,311.938 123.753 C 312.298 122.340,312.780 119.809,313.009 118.130 C 313.564 114.059,314.822 112.918,316.595 114.877 M113.571 118.787 C 112.733 119.984,112.822 120.229,114.096 120.229 C 114.879 120.229,115.288 120.000,115.457 119.469 C 115.964 117.871,114.567 117.366,113.571 118.787 M108.827 127.308 C 107.709 128.249,107.232 129.389,107.956 129.389 C 108.401 129.389,109.542 128.086,109.542 127.578 C 109.542 127.350,109.757 127.086,110.019 126.992 C 110.281 126.899,110.389 126.706,110.258 126.563 C 110.127 126.421,109.483 126.756,108.827 127.308 M308.779 127.268 C 308.779 128.586,308.203 128.778,307.494 127.697 C 307.041 127.005,307.007 126.727,307.357 126.585 C 308.366 126.177,308.779 126.375,308.779 127.268 M304.358 127.331 C 305.678 127.838,305.146 130.559,303.817 130.095 C 302.847 129.757,302.672 129.497,302.672 128.398 C 302.672 127.081,303.063 126.834,304.358 127.331 M300.763 134.924 C 301.160 135.968,302.290 136.236,302.290 135.286 C 302.290 134.867,302.570 134.996,303.244 135.723 C 304.408 136.978,304.498 138.403,303.435 138.740 C 302.396 139.070,302.476 140.207,303.626 141.448 C 304.151 142.015,304.580 142.625,304.580 142.804 C 304.580 142.983,304.935 143.130,305.369 143.130 C 306.635 143.130,307.634 143.853,307.628 144.765 C 307.620 145.893,307.053 146.788,306.705 146.224 C 306.561 145.992,306.049 145.802,305.568 145.802 C 303.653 145.802,300.127 141.176,300.764 139.501 C 301.046 138.759,300.958 138.261,300.375 137.305 C 299.619 136.066,299.397 134.700,299.873 134.224 C 300.272 133.824,300.376 133.906,300.763 134.924 M302.053 136.814 C 301.936 137.119,301.952 137.548,302.088 137.768 C 302.532 138.487,303.053 138.188,303.053 137.214 C 303.053 136.179,302.398 135.917,302.053 136.814 M263.084 139.351 C 261.129 139.579,260.103 139.897,259.553 140.447 C 258.607 141.393,256.972 141.440,255.154 140.573 C 254.018 140.031,253.529 139.995,252.183 140.355 C 251.287 140.594,249.510 140.689,248.178 140.568 C 246.418 140.408,245.406 140.515,244.361 140.970 C 243.579 141.311,241.682 141.844,240.146 142.154 C 238.610 142.464,236.851 142.968,236.238 143.274 C 235.624 143.580,234.605 143.944,233.973 144.083 C 231.543 144.617,232.701 146.237,235.859 146.720 C 236.793 146.863,237.787 147.170,238.067 147.403 C 239.980 148.991,252.538 147.671,251.173 146.026 C 250.765 145.535,250.769 145.394,251.197 145.230 C 252.253 144.825,263.158 145.276,264.057 145.762 C 265.977 146.799,266.935 144.573,265.089 143.364 C 264.486 142.969,264.230 142.530,264.377 142.146 C 264.682 141.352,266.320 141.742,267.412 142.868 C 267.856 143.327,269.028 144.178,270.015 144.759 C 271.947 145.896,272.260 147.037,270.702 147.259 C 269.222 147.471,269.772 147.976,271.735 148.209 C 272.774 148.332,274.107 148.683,274.699 148.989 C 276.355 149.845,278.385 149.945,278.540 149.178 C 278.681 148.483,274.254 143.511,273.496 143.511 C 272.919 143.511,271.374 141.900,271.374 141.299 C 271.374 140.696,267.800 138.919,266.711 138.981 C 266.232 139.008,264.600 139.175,263.084 139.351 M140.458 143.527 C 139.303 143.927,138.273 144.261,138.168 144.270 C 138.063 144.279,138.225 144.444,138.529 144.636 C 139.892 145.498,144.382 144.229,143.725 143.166 C 143.385 142.616,142.958 142.663,140.458 143.527 M158.397 143.734 C 157.872 144.025,156.734 144.266,155.867 144.269 C 154.941 144.272,154.097 144.510,153.818 144.846 C 153.558 145.159,152.659 145.622,151.820 145.873 C 150.713 146.205,150.020 146.754,149.289 147.879 C 148.736 148.731,148.025 149.637,147.710 149.892 C 146.991 150.476,147.098 150.485,153.371 150.386 C 157.316 150.324,158.397 150.172,160.050 149.449 C 161.135 148.975,162.466 148.479,163.007 148.348 C 164.007 148.106,164.360 145.063,163.479 144.275 C 163.200 144.026,159.758 143.075,159.468 143.167 C 159.404 143.188,158.922 143.443,158.397 143.734 M99.578 145.181 C 100.359 146.121,99.374 147.692,97.996 147.704 C 97.307 147.710,97.089 146.488,97.560 145.260 C 97.845 144.517,98.990 144.472,99.578 145.181 M253.603 146.768 C 254.379 147.355,255.625 147.489,256.648 147.097 C 257.917 146.610,257.165 146.184,255.057 146.195 C 253.044 146.206,252.924 146.254,253.603 146.768 M131.097 150.017 C 130.961 150.236,131.058 150.665,131.311 150.971 C 131.703 151.443,131.595 151.491,130.587 151.289 C 129.579 151.087,129.220 151.245,128.195 152.339 C 126.885 153.737,127.572 154.407,129.345 153.459 C 129.761 153.236,130.617 153.053,131.245 153.053 C 132.222 153.053,133.588 152.251,133.588 151.677 C 133.588 150.490,131.616 149.176,131.097 150.017 M102.388 154.479 C 102.283 155.479,102.046 156.461,101.862 156.660 C 101.678 156.860,101.527 157.418,101.527 157.901 C 101.527 158.384,101.355 158.779,101.145 158.779 C 100.543 158.779,100.701 156.252,101.336 155.725 C 101.667 155.450,101.908 154.617,101.908 153.748 C 101.908 152.921,102.059 152.338,102.244 152.452 C 102.428 152.566,102.493 153.478,102.388 154.479 M212.214 162.936 C 212.214 163.277,213.111 163.740,213.772 163.740 C 213.964 163.740,214.122 163.483,214.122 163.168 C 214.122 162.812,213.762 162.595,213.168 162.595 C 212.643 162.595,212.214 162.749,212.214 162.936 M156.942 167.572 C 156.211 168.254,155.746 170.229,156.317 170.229 C 156.767 170.229,158.778 169.049,158.773 168.788 C 158.738 166.913,158.102 166.491,156.942 167.572 M215.600 177.486 C 215.235 178.366,215.808 181.423,216.532 182.457 C 217.165 183.361,217.176 183.362,217.176 182.547 C 217.176 182.091,216.928 181.579,216.626 181.410 C 216.279 181.215,216.033 180.332,215.958 179.005 C 215.893 177.852,215.732 177.168,215.600 177.486 M96.577 195.324 C 96.584 196.322,96.841 197.471,97.150 197.878 C 97.458 198.286,97.710 199.062,97.710 199.603 C 97.710 200.144,98.151 201.235,98.689 202.027 C 99.228 202.820,99.988 204.362,100.379 205.455 C 100.769 206.548,101.448 208.432,101.886 209.641 C 102.325 210.850,102.841 213.254,103.034 214.984 C 103.227 216.714,103.834 220.235,104.383 222.808 C 105.247 226.854,105.315 227.628,104.883 228.529 C 104.137 230.085,103.211 230.068,102.689 228.487 C 102.448 227.758,101.830 226.886,101.315 226.548 C 98.132 224.463,94.198 213.065,93.175 202.962 C 92.967 200.917,92.699 199.085,92.579 198.891 C 91.970 197.904,93.175 194.774,94.389 194.194 C 96.382 193.242,96.564 193.336,96.577 195.324 M327.094 199.769 C 330.633 202.311,332.911 205.888,332.712 208.587 C 332.467 211.883,331.260 214.797,329.432 216.502 C 326.173 219.543,324.807 217.962,324.510 210.805 C 324.338 206.651,324.816 195.912,325.098 197.596 C 325.177 198.066,326.056 199.023,327.094 199.769 M317.176 199.011 C 317.176 199.492,317.351 200.391,317.566 201.007 C 318.337 203.219,317.875 216.087,317.080 214.541 C 316.308 213.039,316.040 197.435,316.794 197.901 C 317.004 198.031,317.176 198.530,317.176 199.011 M307.998 200.859 C 309.969 203.947,308.056 220.494,305.655 221.121 C 302.112 222.048,302.341 207.806,305.965 201.806 C 307.219 199.729,307.264 199.708,307.998 200.859 M87.168 207.749 C 87.307 209.050,87.584 211.231,87.783 212.595 C 87.982 213.960,88.320 216.450,88.534 218.130 C 88.747 219.809,89.014 221.570,89.125 222.042 C 89.281 222.703,89.160 222.901,88.599 222.901 C 87.605 222.901,87.034 219.598,86.040 208.101 C 85.692 204.074,86.742 203.746,87.168 207.749 M80.460 214.034 C 81.596 216.984,81.976 224.893,80.931 223.823 C 78.947 221.793,77.635 214.453,78.967 212.839 C 79.603 212.068,79.749 212.185,80.460 214.034 M83.476 216.885 C 83.385 217.360,83.307 217.061,83.302 216.221 C 83.298 215.382,83.373 214.993,83.468 215.358 C 83.564 215.723,83.567 216.410,83.476 216.885 M87.595 234.504 C 91.089 235.420,90.336 238.038,86.688 237.662 C 83.601 237.343,82.481 235.311,84.862 234.351 C 85.316 234.168,85.687 234.015,85.687 234.011 C 85.687 234.006,86.546 234.228,87.595 234.504 M176.725 241.012 C 176.330 242.050,176.590 245.155,177.166 246.279 C 177.618 247.161,178.626 247.136,178.626 246.242 C 178.626 245.855,178.969 245.227,179.389 244.847 C 180.614 243.739,180.260 240.819,178.998 241.617 C 178.039 242.224,177.408 242.052,177.662 241.253 C 178.019 240.126,177.147 239.901,176.725 241.012 M229.433 240.652 C 228.321 241.263,227.876 241.924,227.868 242.976 C 227.865 243.416,227.588 244.327,227.252 245.000 C 226.821 245.864,226.716 246.695,226.896 247.826 C 227.037 248.707,227.136 250.329,227.118 251.431 C 227.100 252.559,227.255 253.435,227.474 253.435 C 227.688 253.435,227.863 253.006,227.863 252.481 C 227.863 251.675,228.041 251.527,229.008 251.527 C 229.949 251.527,230.153 251.370,230.153 250.645 C 230.153 249.309,231.155 248.056,231.504 248.956 C 231.648 249.327,231.674 249.979,231.562 250.406 C 231.425 250.931,231.719 251.550,232.474 252.322 C 233.086 252.949,233.588 253.271,233.588 253.037 C 233.588 252.804,234.087 252.114,234.697 251.504 C 235.968 250.233,236.057 248.549,234.982 246.112 C 234.640 245.338,234.157 243.940,233.907 243.005 C 233.236 240.500,231.434 239.551,229.433 240.652 M181.955 242.972 C 180.855 243.568,180.587 247.152,181.569 248.133 C 182.682 249.247,185.517 246.783,184.831 245.299 C 184.619 244.841,184.257 243.993,184.025 243.416 C 183.544 242.215,183.405 242.186,181.955 242.972 M217.881 244.561 C 217.768 245.883,218.017 247.528,218.403 247.996 C 219.377 249.179,220.038 247.907,219.245 246.378 C 218.946 245.803,218.702 245.009,218.702 244.613 C 218.702 243.706,217.959 243.659,217.881 244.561 M224.526 248.187 C 223.783 249.130,223.564 252.029,224.256 251.763 C 224.595 251.633,225.029 251.527,225.222 251.527 C 225.415 251.527,225.573 250.668,225.573 249.618 C 225.573 247.721,225.246 247.275,224.526 248.187 M242.372 248.760 C 242.375 248.917,242.538 249.298,242.733 249.607 C 243.173 250.303,243.689 249.868,243.380 249.062 C 243.151 248.467,242.361 248.230,242.372 248.760 M71.756 252.585 C 71.756 252.747,72.572 254.013,73.569 255.398 C 74.566 256.784,75.639 258.304,75.954 258.777 C 76.269 259.249,76.732 259.850,76.982 260.112 C 77.907 261.080,79.389 263.482,79.389 264.012 C 79.389 264.989,77.018 266.794,75.733 266.794 C 75.449 266.794,74.629 267.310,73.910 267.942 C 72.862 268.862,72.559 268.975,72.382 268.514 C 72.223 268.098,71.581 267.939,70.069 267.939 C 68.740 267.939,67.866 267.754,67.672 267.433 C 67.504 267.155,67.066 266.817,66.698 266.682 C 66.324 266.544,66.031 266.046,66.031 265.546 C 66.031 265.057,65.857 264.483,65.645 264.271 C 64.569 263.195,65.269 256.743,66.634 255.154 C 67.142 254.563,67.557 253.624,67.557 253.067 C 67.557 252.510,67.809 251.721,68.118 251.313 C 68.426 250.906,68.683 250.251,68.690 249.859 C 68.700 249.299,69.033 249.486,70.229 250.718 C 71.069 251.583,71.756 252.423,71.756 252.585 M193.630 249.537 C 193.380 249.696,193.192 250.380,193.211 251.058 C 193.250 252.423,195.568 252.919,196.525 251.766 C 197.566 250.511,195.093 248.607,193.630 249.537 M222.350 252.637 C 222.028 253.158,222.550 254.251,223.043 254.089 C 223.727 253.865,223.812 252.290,223.141 252.290 C 222.824 252.290,222.468 252.446,222.350 252.637 M162.382 258.603 C 162.133 260.267,162.182 260.389,163.599 261.641 C 166.272 264.002,166.555 263.533,164.797 259.650 C 163.348 256.452,162.744 256.190,162.382 258.603 M238.599 259.292 C 237.721 260.349,237.617 262.214,238.435 262.214 C 239.312 262.214,240.840 260.708,240.840 259.844 C 240.840 258.834,239.295 258.453,238.599 259.292 M251.622 312.489 C 249.272 312.661,248.940 313.404,250.940 314.018 C 252.468 314.487,255.153 313.785,255.153 312.917 C 255.153 312.347,254.555 312.274,251.622 312.489 M160.305 317.176 C 160.305 318.376,160.941 318.677,161.756 317.863 C 162.578 317.041,162.304 316.031,161.260 316.031 C 160.454 316.031,160.305 316.209,160.305 317.176 M249.097 317.811 C 248.334 318.790,247.710 319.906,247.710 320.292 C 247.710 320.745,247.432 320.992,246.921 320.992 C 245.365 320.992,244.556 321.732,244.797 322.936 C 244.992 323.908,244.908 324.046,244.126 324.046 C 243.635 324.046,242.796 324.389,242.262 324.809 C 241.729 325.229,240.858 325.573,240.328 325.573 C 239.178 325.573,239.071 325.874,238.726 330.077 C 238.503 332.802,238.561 333.349,239.140 333.989 C 240.122 335.074,240.972 334.958,240.745 333.770 C 240.533 332.664,241.028 332.226,242.301 332.390 C 243.476 332.542,244.247 331.470,244.263 329.667 C 244.272 328.543,244.467 328.141,245.152 327.828 C 245.981 327.451,247.294 324.204,247.531 321.947 C 247.575 321.527,247.820 321.231,248.075 321.290 C 248.330 321.348,248.631 321.046,248.743 320.617 C 248.855 320.189,249.361 319.735,249.868 319.608 C 250.882 319.353,252.084 317.419,251.757 316.569 C 251.383 315.594,250.504 316.005,249.097 317.811 M164.298 318.726 C 164.161 318.949,163.635 319.288,163.131 319.480 C 162.164 319.847,161.920 320.928,162.642 321.649 C 163.572 322.579,166.633 320.382,166.220 319.081 C 165.965 318.275,164.719 318.045,164.298 318.726 M165.732 322.701 L 164.874 323.593 166.324 325.823 C 167.121 327.050,167.940 328.555,168.143 329.167 C 168.947 331.597,169.847 330.214,169.847 326.548 C 169.847 325.328,169.597 324.678,168.798 323.821 C 166.907 321.794,166.684 321.712,165.732 322.701 M172.341 329.368 C 172.072 329.804,172.503 330.916,172.942 330.916 C 173.129 330.916,173.285 331.217,173.288 331.584 C 173.299 332.843,173.865 333.330,174.761 332.850 C 176.126 332.120,175.804 330.732,174.060 329.823 C 173.228 329.389,172.455 329.185,172.341 329.368 M235.019 331.342 C 234.442 331.772,233.969 332.370,233.969 332.670 C 233.969 333.089,233.628 333.161,232.494 332.979 C 231.168 332.767,230.996 332.835,230.792 333.649 C 230.655 334.194,230.104 334.728,229.404 334.992 C 228.053 335.502,227.831 336.775,228.986 337.393 C 229.937 337.902,231.679 337.166,231.679 336.256 C 231.679 335.364,234.590 334.191,234.886 334.964 C 235.523 336.623,236.492 335.513,236.838 332.729 C 237.147 330.244,236.822 329.996,235.019 331.342 M176.502 333.324 C 176.257 333.961,176.927 335.496,177.450 335.496 C 177.628 335.496,177.901 335.883,178.057 336.355 L 178.341 337.214 178.521 336.272 C 178.620 335.754,178.512 335.267,178.282 335.191 C 178.051 335.114,177.863 334.743,177.863 334.366 C 177.863 333.367,176.798 332.552,176.502 333.324 M182.367 335.592 C 180.799 336.832,181.555 340.482,183.373 340.451 C 183.945 340.441,186.085 337.768,186.351 336.732 C 186.721 335.290,183.804 334.455,182.367 335.592 M190.576 338.792 C 190.171 339.849,190.993 340.655,192.408 340.587 C 193.120 340.553,194.003 340.510,194.370 340.492 C 195.274 340.446,195.227 339.313,194.322 339.313 C 193.927 339.313,193.391 339.055,193.130 338.740 C 192.496 337.977,190.876 338.010,190.576 338.792 M214.790 338.431 C 214.398 338.534,214.122 338.968,214.122 339.485 C 214.122 341.000,213.266 341.325,211.910 340.324 C 209.975 338.897,208.066 339.550,208.020 341.654 C 208.011 342.113,212.408 344.054,213.227 343.951 C 213.679 343.894,214.162 344.030,214.299 344.252 C 214.616 344.765,216.436 344.774,217.765 344.268 C 218.942 343.821,218.465 342.748,217.088 342.748 C 216.520 342.748,216.397 342.581,216.597 342.080 C 217.331 340.241,216.689 337.804,215.579 338.212 C 215.512 338.237,215.157 338.335,214.790 338.431 M201.224 339.387 C 200.456 340.155,200.631 342.748,201.450 342.748 C 201.828 342.748,202.344 342.542,202.595 342.290 C 202.952 341.934,203.155 341.934,203.511 342.290 C 204.068 342.846,206.731 342.900,207.064 342.362 C 207.348 341.902,205.779 339.809,204.962 339.557 C 203.291 339.040,201.645 338.965,201.224 339.387 M224.523 339.850 C 223.347 341.091,223.464 342.849,224.669 342.055 C 224.989 341.844,225.954 339.599,225.954 339.065 C 225.954 338.680,225.283 339.049,224.523 339.850 M222.519 343.702 C 222.519 344.052,222.704 344.277,222.929 344.202 C 223.155 344.126,223.340 343.902,223.340 343.702 C 223.340 343.503,223.155 343.278,222.929 343.203 C 222.704 343.128,222.519 343.352,222.519 343.702 " stroke="none" fill="#191416" fill-rule="evenodd"></path></g></svg>